<?xml version="1.0" standalone="no"?>
<!DOCTYPE svg PUBLIC "-//W3C//DTD SVG 1.1//EN" "http://www.w3.org/Graphics/SVG/1.1/DTD/svg11.dtd" >
<svg xmlns="http://www.w3.org/2000/svg" xmlns:xlink="http://www.w3.org/1999/xlink" version="1.1">
<metadata></metadata>
<defs>
<font id="helveticanowtext_regularRg" horiz-adv-x="1310" >
<font-face units-per-em="2048" ascent="1792" descent="-256" />
<missing-glyph horiz-adv-x="552" />
<glyph unicode="&#xfb01;" horiz-adv-x="1249" d="M82 911v146l170 -6v90q0 165 76 241t241 76h113v-158h-109q-76 0 -104 -28q-29 -29 -29 -105v-118l242 8v-146l-242 9v-920h-188v920zM897 0v1057h188v-1057h-188zM897 1255v203h188v-203h-188z" />
<glyph unicode="&#xfb02;" horiz-adv-x="1249" d="M82 911v146l170 -6v90q0 165 76 241t241 76h113v-158h-109q-76 0 -104 -28q-29 -29 -29 -105v-118l242 8v-146l-242 9v-920h-188v920zM897 0v1458h188v-1458h-188z" />
<glyph horiz-adv-x="0" />
<glyph horiz-adv-x="682" />
<glyph horiz-adv-x="0" />
<glyph horiz-adv-x="0" />
<glyph unicode="&#xd;" horiz-adv-x="681" />
<glyph unicode=" "  horiz-adv-x="552" />
<glyph unicode="&#x09;" horiz-adv-x="552" />
<glyph unicode="&#xa0;" horiz-adv-x="552" />
<glyph unicode="!" horiz-adv-x="559" d="M174 0v207h211v-207h-211zM184 1038v420h191v-420l-56 -694h-79z" />
<glyph unicode="&#x22;" horiz-adv-x="901" d="M164 893v565h168v-565h-168zM571 893v565h166v-565h-166z" />
<glyph unicode="#" horiz-adv-x="1378" d="M88 381v154l246 -7l57 402l-225 -6v155l246 -6l53 385h153l-55 -387h346l56 387h153l-53 -385l225 6v-155l-246 6l-57 -402l225 7v-154l-243 6l-56 -387h-153l55 389h-346l-55 -389h-154l55 387zM487 526h347l57 406h-346z" />
<glyph unicode="$" d="M139 453h180q18 -152 101 -224q81 -71 250 -71q158 0 238 67q81 67 81 183q0 98 -60 152q-61 55 -196 85l-164 39q-381 90 -381 387q0 165 104 266q103 100 296 117v281h162v-281q350 -38 389 -389h-181q-18 120 -91 178q-72 57 -212 57q-282 0 -282 -223q0 -86 55 -140 q56 -55 195 -89l165 -39q202 -49 294 -141t92 -238q0 -176 -114 -290q-114 -113 -310 -136v-299h-162v299q-393 33 -449 449z" />
<glyph unicode="%" horiz-adv-x="2492" d="M174 1087q0 227 96 345t281 118q187 0 283 -118t96 -345q0 -225 -96 -344q-96 -118 -283 -118q-185 0 -281 118q-96 119 -96 344zM344 1087q0 -171 51 -243q50 -74 156 -74q107 0 158 76q51 72 51 241q0 167 -51 244q-53 74 -158 74q-106 0 -156 -74q-51 -77 -51 -244z M670 -31l917 1520h187l-914 -1520h-190zM1563 430q0 226 96 344q96 119 280 119q187 0 283 -119t96 -344q0 -226 -96 -344q-96 -119 -283 -119q-184 0 -280 119q-96 118 -96 344zM1733 430q0 -172 51 -244q49 -73 155 -73q108 0 158 75q51 72 51 242q0 168 -51 244 q-53 74 -158 74t-155 -74q-51 -77 -51 -244z" />
<glyph unicode="&#x26;" horiz-adv-x="1603" d="M164 401q0 301 330 422q-154 169 -154 326q0 153 109 250q106 94 280 94q175 0 283 -93t108 -247q0 -252 -325 -385l350 -354q50 108 65 248l181 -3q-27 -209 -129 -366l290 -295h-249l-154 156q-187 -187 -463 -187q-232 0 -377 119q-145 117 -145 315zM342 408 q0 -127 93 -205t257 -78q214 0 344 143l-432 441q-262 -90 -262 -301zM522 1151q0 -108 107 -215l51 -53q258 90 258 262q0 84 -59 136t-152 52q-88 0 -146 -49q-59 -50 -59 -133z" />
<glyph unicode="'" horiz-adv-x="493" d="M164 893v565h166v-565h-166z" />
<glyph unicode="(" horiz-adv-x="694" d="M131 547q0 564 313 983h162q-287 -439 -287 -983q0 -526 287 -965h-162q-313 421 -313 965z" />
<glyph unicode=")" horiz-adv-x="694" d="M88 -418q287 439 287 965q0 544 -287 983h162q313 -419 313 -983q0 -544 -313 -965h-162z" />
<glyph unicode="*" horiz-adv-x="1112" d="M164 1147l53 133l277 -115l-11 293h146l-11 -293l277 115l53 -133l-291 -92l193 -242l-121 -84l-172 256l-172 -256l-129 84l199 242z" />
<glyph unicode="+" d="M94 553v164h479v481h164v-481h482v-164h-482v-479h-164v479h-479z" />
<glyph unicode="," horiz-adv-x="614" d="M195 0v205h225v-277q0 -221 -203 -221h-20v103h20q96 0 96 96v104z" />
<glyph unicode="-" horiz-adv-x="778" d="M102 426v170h574v-170h-574z" />
<glyph unicode="." horiz-adv-x="579" d="M174 0v207h232v-207h-232z" />
<glyph unicode="/" horiz-adv-x="958" d="M82 0l606 1458h189l-607 -1458h-188z" />
<glyph unicode="0" d="M152 729q0 382 126 568t379 186t378 -185q124 -184 124 -569q0 -754 -506 -754q-501 0 -501 754zM346 729q0 -311 74 -448q74 -140 237 -140q164 0 236 140q72 139 72 448q0 308 -73 449q-72 139 -237 139q-164 0 -236 -139q-73 -141 -73 -449z" />
<glyph unicode="1" horiz-adv-x="919" d="M88 1057v143h55q159 0 242 60q79 61 113 176l6 22h153v-1458h-190v1057h-379z" />
<glyph unicode="2" d="M168 0q12 199 89 333q76 132 245 238l254 158q198 121 198 303q0 130 -75 201q-77 72 -205 72q-137 0 -212 -83t-75 -241v-23h-190v31q0 221 133 354q132 132 348 132q202 0 336 -117q131 -117 131 -318q0 -271 -277 -446l-182 -115q-161 -102 -217 -162 q-61 -67 -68 -145h736v-172h-969z" />
<glyph unicode="3" d="M109 463h190q15 -322 362 -322q171 0 259 75t88 208q0 125 -78 191q-79 67 -230 67h-155v166h104q277 0 277 225q0 234 -287 234q-142 0 -212 -68t-77 -219h-190q7 219 136 338q128 119 351 119q213 0 344 -107q129 -108 129 -280q0 -218 -215 -308v-6q144 -28 221 -120 q76 -91 76 -232q0 -206 -149 -328q-151 -125 -396 -125q-248 0 -394 130t-154 362z" />
<glyph unicode="4" d="M111 344v178l708 936h146v-948h235v-166h-235v-344h-191v344h-663zM305 510h469v612h-4z" />
<glyph unicode="5" d="M156 387h184q18 -127 100 -194q83 -68 209 -68q148 0 229 90q80 89 80 252q0 162 -81 250q-83 90 -226 90q-169 0 -268 -127h-190l145 778h737v-172h-604l-78 -416l4 -4q137 99 293 99q212 0 340 -140q123 -141 123 -354q0 -219 -133 -362q-136 -142 -377 -142 q-208 0 -337 112q-127 111 -150 308z" />
<glyph unicode="6" d="M154 696q0 377 136 585t392 208q185 0 306 -104q120 -103 130 -277h-180q-15 105 -83 164t-177 59q-324 0 -342 -561q123 180 360 180q209 0 334 -131t125 -344q0 -225 -133 -364q-136 -138 -360 -138q-234 0 -367 166q-141 180 -141 557zM362 471q0 -160 84 -250 t220 -90q133 0 217 90q82 88 82 244q0 151 -80 240q-79 88 -217 88q-136 0 -221 -88t-85 -234z" />
<glyph unicode="7" d="M141 1282v176h1026v-147q-278 -229 -427 -546q-150 -318 -189 -765h-203q45 428 189 738q144 311 401 544h-797z" />
<glyph unicode="8" d="M102 410q0 138 75 237q74 98 206 137v2q-209 95 -209 324q0 171 131 272t350 101q220 0 351 -101t131 -272q0 -229 -209 -324v-2q132 -39 206 -137t74 -237q0 -210 -155 -326q-156 -117 -398 -117q-238 0 -395 117q-158 117 -158 326zM297 416q0 -135 96 -213t262 -78 q167 0 263 78t96 213q0 132 -96 209q-94 75 -263 75q-168 0 -262 -75q-96 -77 -96 -209zM354 1098q0 -114 79 -177t222 -63q146 0 224 63q77 62 77 177q0 227 -301 227t-301 -227z" />
<glyph unicode="9" d="M156 987q0 225 135 365q131 137 358 137q237 0 367 -166q141 -180 141 -557t-136 -585t-392 -208q-185 0 -306 104q-120 103 -130 277h180q15 -105 83 -164t177 -59q324 0 342 561q-123 -180 -361 -180q-206 0 -331 131q-127 133 -127 344zM346 997q0 -150 80 -239 q79 -88 217 -88q135 0 220 88t85 233q0 157 -83 249q-82 91 -220 91q-135 0 -217 -90q-82 -89 -82 -244z" />
<glyph unicode=":" horiz-adv-x="579" d="M174 0v207h232v-207h-232zM174 850v207h232v-207h-232z" />
<glyph unicode=";" horiz-adv-x="620" d="M195 850v207h231v-207h-231zM201 0v205h225v-277q0 -221 -203 -221h-20v103h20q96 0 96 96v104z" />
<glyph unicode="&#x3c;" d="M96 520v201l1121 426v-184l-934 -342l934 -340v-185z" />
<glyph unicode="=" d="M115 328v164h1083v-164h-1083zM115 776v164h1083v-164h-1083z" />
<glyph unicode="&#x3e;" d="M96 96v185l934 340l-934 342v184l1121 -426v-201z" />
<glyph unicode="?" horiz-adv-x="1247" d="M104 1014q12 225 143 348q130 123 371 123q228 0 363 -108t135 -298q0 -225 -211 -360l-98 -64q-78 -51 -105 -106q-26 -49 -26 -172v-17h-178v64q0 138 55 223q57 85 197 168q190 114 190 268q0 121 -86 186q-85 64 -236 64q-321 0 -333 -319h-181zM483 0v207h211v-207 h-211z" />
<glyph unicode="@" horiz-adv-x="2211" d="M174 567q0 417 258 674q258 252 692 252q422 0 670 -231q244 -235 244 -588q0 -249 -117 -412q-122 -164 -311 -164q-190 0 -250 158q-96 -158 -289 -158q-182 0 -287 127q-104 126 -104 342q0 211 108 338q108 123 283 123t277 -135l8 108h151v-649q0 -55 29 -86 q28 -30 84 -30q110 0 182 109t72 306q0 304 -201 494q-197 190 -555 190q-361 0 -559 -205q-201 -207 -201 -563q0 -361 199 -563q198 -201 561 -201q208 0 389 68v-162q-171 -59 -383 -59q-436 0 -694 244q-256 246 -256 673zM852 567q0 -158 63 -248t179 -90q98 0 161 66 t84 178v195q-23 107 -86 167t-159 60q-117 0 -180 -86q-62 -84 -62 -242z" />
<glyph unicode="A" horiz-adv-x="1466" d="M61 0l566 1458h215l563 -1458h-211l-154 428h-618l-158 -428h-203zM483 594h498l-199 553l-47 151l-49 -151z" />
<glyph unicode="B" horiz-adv-x="1480" d="M174 0v1458h657q202 0 315 -94q114 -95 114 -262q0 -233 -211 -318q278 -82 278 -360q0 -199 -127 -311q-128 -113 -354 -113h-672zM365 166h466q302 0 302 258q0 256 -302 256h-466v-514zM365 840h426q133 0 203 61q71 62 71 174q0 217 -256 217h-444v-452z" />
<glyph unicode="C" horiz-adv-x="1499" d="M131 729q0 340 180 547q179 209 477 209q231 0 400 -127q166 -124 201 -340h-195q-33 142 -137 219q-105 78 -260 78q-221 0 -346 -156q-125 -157 -125 -430q0 -275 125 -435q125 -159 346 -159q175 0 285 102q110 103 137 293h188q-37 -264 -201 -414 q-165 -151 -415 -151q-303 0 -482 213q-178 211 -178 551z" />
<glyph unicode="D" horiz-adv-x="1460" d="M174 0v1458h526q312 0 477 -190q164 -189 164 -539q0 -344 -174 -536q-175 -193 -508 -193h-485zM365 166h286q253 0 374 139q122 140 122 424q0 287 -120 425t-365 138h-297v-1126z" />
<glyph unicode="E" horiz-adv-x="1357" d="M174 0v1458h1032v-166h-841v-458h776v-166h-776v-502h860v-166h-1051z" />
<glyph unicode="F" horiz-adv-x="1222" d="M174 0v1458h997v-166h-806v-458h667v-166h-667v-668h-191z" />
<glyph unicode="G" horiz-adv-x="1652" d="M131 733q0 347 188 553q186 205 515 205q248 0 417 -121q168 -123 201 -334l-184 -12q-30 143 -144 221q-112 76 -280 76q-245 0 -382 -158q-136 -157 -136 -436q0 -267 133 -428q131 -162 366 -162q183 0 305 105q121 105 160 293v79h-442v166h631v-780h-140l-43 197 q-156 -230 -475 -230q-302 0 -497 207q-193 207 -193 559z" />
<glyph unicode="H" horiz-adv-x="1501" d="M174 0v1458h191v-600h772v600h190v-1458h-190v692h-772v-692h-191z" />
<glyph unicode="I" horiz-adv-x="538" d="M174 0v1458h191v-1458h-191z" />
<glyph unicode="J" horiz-adv-x="1120" d="M102 389v109h191v-99q0 -254 239 -254q224 0 224 254v1059h190v-1065q0 -205 -106 -311q-107 -107 -310 -107q-202 0 -315 111q-113 107 -113 303z" />
<glyph unicode="K" horiz-adv-x="1462" d="M174 0v1458h191v-715l741 715h254l-617 -588l658 -870h-238l-553 750l-245 -240v-510h-191z" />
<glyph unicode="L" horiz-adv-x="1216" d="M174 0v1458h191v-1292h759v-166h-950z" />
<glyph unicode="M" horiz-adv-x="1792" d="M174 0v1458h268l414 -1114l49 -145l49 145l400 1114h264v-1458h-174v967l4 262l-105 -260l-348 -969h-180l-377 1001l-96 230l6 -264v-967h-174z" />
<glyph unicode="N" horiz-adv-x="1507" d="M174 0v1458h211l768 -1190v1190h180v-1458h-217l-762 1184v-1184h-180z" />
<glyph unicode="O" horiz-adv-x="1640" d="M131 729q0 332 193 545q190 211 495 211q308 0 500 -211q190 -212 190 -545q0 -340 -190 -551q-195 -213 -500 -213q-304 0 -495 215q-193 213 -193 549zM326 729q0 -269 137 -432q137 -162 358 -162q223 0 359 162q135 159 135 432q0 268 -137 426q-137 160 -357 160 q-218 0 -358 -160q-137 -158 -137 -426z" />
<glyph unicode="P" horiz-adv-x="1331" d="M174 0v1458h600q220 0 344 -108q125 -108 125 -310q0 -209 -125 -320q-126 -112 -348 -112h-405v-608h-191zM365 774h409q132 0 205 69q74 69 74 195q0 254 -289 254h-399v-518z" />
<glyph unicode="Q" horiz-adv-x="1638" d="M131 729q0 332 193 545q190 211 495 211q308 0 500 -211q190 -212 190 -545q0 -352 -209 -567l207 -152l-96 -127l-227 183q-163 -101 -365 -101q-304 0 -495 215q-193 213 -193 549zM326 729q0 -269 137 -432q137 -162 358 -162q107 0 209 47l-151 105l98 129l178 -144 q160 168 160 457q0 268 -137 426q-137 160 -357 160q-218 0 -358 -160q-137 -158 -137 -426z" />
<glyph unicode="R" horiz-adv-x="1466" d="M174 0v1458h676q208 0 327 -103t119 -282q0 -140 -70 -235q-70 -96 -190 -129q203 -41 224 -244l53 -465h-193l-43 389q-15 128 -75 184q-61 56 -187 56h-450v-629h-191zM365 795h419q151 0 234 68q84 69 84 192q0 114 -74 176q-73 61 -211 61h-452v-497z" />
<glyph unicode="S" horiz-adv-x="1368" d="M104 473h183q29 -348 420 -348q181 0 277 70q95 69 95 198q0 105 -70 165q-71 61 -239 95l-205 43q-205 43 -307 132q-102 88 -102 249q0 191 136 302q138 112 382 112q242 0 386 -115q143 -114 159 -325h-183q-12 140 -106 212q-95 72 -262 72q-158 0 -245 -63t-87 -178 q0 -89 59 -141q60 -53 195 -81l256 -55q418 -88 418 -414q0 -197 -145 -316q-143 -118 -419 -118q-558 0 -596 504z" />
<glyph unicode="T" horiz-adv-x="1308" d="M72 1292v166h1165v-166h-487v-1292h-191v1292h-487z" />
<glyph unicode="U" horiz-adv-x="1474" d="M174 461v997h191v-1003q0 -154 94 -236t278 -82q185 0 279 82t94 236v1003h190v-997q0 -237 -147 -365q-150 -129 -416 -129t-413 129q-150 124 -150 365z" />
<glyph unicode="V" horiz-adv-x="1390" d="M61 1458h211l357 -1036l71 -221l72 221l354 1036h203l-522 -1458h-219z" />
<glyph unicode="W" horiz-adv-x="1955" d="M61 1458h195l217 -870l72 -328l80 328l237 870h215l236 -870l78 -330l77 330l232 870h194l-405 -1458h-182l-338 1262l-336 -1262h-182z" />
<glyph unicode="X" horiz-adv-x="1396" d="M61 0l543 764l-495 694h239l309 -473l48 -76l47 74l317 475h229l-493 -694l530 -764h-239l-340 537l-51 86l-58 -88l-356 -535h-230z" />
<glyph unicode="Y" horiz-adv-x="1400" d="M43 1458h229l375 -598l64 -108l63 108l367 598h217l-553 -860v-598h-191v598z" />
<glyph unicode="Z" horiz-adv-x="1382" d="M121 0v184l864 1104h-809v170h1053v-151l-887 -1137h918v-170h-1139z" />
<glyph unicode="[" horiz-adv-x="645" d="M174 -418v1948h383v-162h-205v-1624h205v-162h-383z" />
<glyph unicode="\" horiz-adv-x="958" d="M82 1458h188l607 -1458h-189z" />
<glyph unicode="]" horiz-adv-x="645" d="M88 -256h205v1624h-205v162h383v-1948h-383v162z" />
<glyph unicode="^" d="M166 401l387 1057h186l406 -1057h-203l-211 611q-36 97 -88 280q-42 -152 -86 -280l-201 -611h-190z" />
<glyph unicode="_" horiz-adv-x="1024" d="M0 -154h1024v-161h-1024v161z" />
<glyph unicode="`" horiz-adv-x="1024" d="M293 1507h258l180 -317h-166z" />
<glyph unicode="a" horiz-adv-x="1167" d="M106 281q0 282 361 329l270 35q76 7 76 80v45q0 164 -238 164q-119 0 -175 -43t-64 -146h-186q27 345 440 345q414 0 414 -338v-521q0 -51 20 -71q21 -21 72 -21h30v-139h-100q-170 0 -182 156q-55 -83 -156 -133q-102 -50 -227 -50q-165 0 -260 81t-95 227zM293 289 q0 -80 54 -125t149 -45q129 0 223 76t94 176v147l-315 -47q-205 -30 -205 -182z" />
<glyph unicode="b" horiz-adv-x="1230" d="M164 0v1458h188v-530q108 151 322 151q206 0 330 -143t124 -383q0 -253 -124 -414q-124 -162 -338 -162q-109 0 -201 52q-90 51 -137 137v-166h-164zM342 541q0 -184 86 -293q85 -109 219 -109q135 0 215 115q78 114 78 299q0 176 -76 270q-77 95 -217 95 q-139 0 -222 -99q-83 -100 -83 -278z" />
<glyph unicode="c" horiz-adv-x="1140" d="M102 520q0 263 134 414q133 149 366 149q187 0 303 -97q117 -98 144 -275h-179q-44 215 -266 215q-313 0 -313 -398q0 -187 81 -292t230 -105q223 0 270 238h177q-29 -191 -146 -293q-118 -103 -311 -103q-228 0 -359 144q-131 145 -131 403z" />
<glyph unicode="d" horiz-adv-x="1230" d="M102 545q0 238 127 387q127 147 330 147q210 0 320 -149v528h188v-1458h-164v168q-49 -88 -139 -139q-92 -52 -201 -52q-211 0 -336 160q-125 157 -125 408zM291 545q0 -187 78 -295q78 -111 213 -111t221 109t86 293q0 180 -82 278q-82 99 -221 99q-141 0 -218 -98 t-77 -275z" />
<glyph unicode="e" horiz-adv-x="1185" d="M102 532q0 248 134 400q130 149 364 149q222 0 353 -141q130 -140 130 -387v-70h-792q4 -172 88 -263t231 -91q220 0 293 211l172 -21q-50 -164 -173 -253q-126 -91 -298 -91q-236 0 -366 156q-136 154 -136 401zM293 618h614q-18 148 -96 230q-80 80 -209 80 q-127 0 -211 -78q-81 -78 -98 -232z" />
<glyph unicode="f" horiz-adv-x="733" d="M82 911v146l170 -6v90q0 165 76 241t241 76h113v-158h-109q-76 0 -104 -28q-29 -29 -29 -105v-118l242 8v-146l-242 9v-920h-188v920z" />
<glyph unicode="g" horiz-adv-x="1241" d="M102 545q0 238 127 387q127 147 330 147q114 0 203 -49q90 -50 139 -137v164h176v-1022q0 -477 -495 -477q-197 0 -311 77q-115 78 -136 232h184q21 -85 85 -122q65 -38 184 -38q163 0 235 72t72 237v138q-51 -83 -139 -129q-91 -48 -193 -48q-211 0 -336 160 q-125 157 -125 408zM291 545q0 -187 78 -295q78 -111 213 -111t221 109t86 293q0 180 -82 278q-82 99 -221 99q-141 0 -218 -98t-77 -275z" />
<glyph unicode="h" horiz-adv-x="1216" d="M164 0v1458h188v-534q114 159 342 159q168 0 263 -92q96 -93 96 -258v-733h-189v696q0 224 -211 224q-132 0 -217 -83q-84 -83 -84 -249v-588h-188z" />
<glyph unicode="i" horiz-adv-x="516" d="M164 0v1057h188v-1057h-188zM164 1255v203h188v-203h-188z" />
<glyph unicode="j" horiz-adv-x="516" d="M-16 -260h47q75 0 104 29t29 104v1184h188v-1157q0 -166 -76 -242t-241 -76h-51v158zM164 1255v203h188v-203h-188z" />
<glyph unicode="k" horiz-adv-x="1153" d="M164 0v1458h188v-852l467 451h238l-422 -389l452 -668h-221l-360 551l-154 -139v-412h-188z" />
<glyph unicode="l" horiz-adv-x="516" d="M164 0v1458h188v-1458h-188z" />
<glyph unicode="m" horiz-adv-x="1773" d="M164 0v1057h180l-8 -156q107 182 321 182q224 0 293 -184q105 184 336 184q324 0 324 -358v-725h-189v723q0 91 -47 144t-135 53q-117 0 -187 -85q-71 -86 -71 -262v-573h-188v723q0 90 -49 144q-48 53 -134 53q-113 0 -186 -90q-72 -88 -72 -267v-563h-188z" />
<glyph unicode="n" horiz-adv-x="1216" d="M164 0v1057h176v-150q114 176 354 176q168 0 263 -92q96 -93 96 -258v-733h-189v696q0 224 -211 224q-132 0 -217 -83q-84 -83 -84 -249v-588h-188z" />
<glyph unicode="o" horiz-adv-x="1222" d="M102 528q0 254 144 404q141 151 370 151q224 0 365 -147q139 -151 139 -399q0 -251 -143 -406q-146 -158 -367 -158q-229 0 -366 154q-142 154 -142 401zM291 528q0 -179 86 -288t233 -109q150 0 236 111q86 112 86 295q0 180 -85 284q-85 105 -237 105q-148 0 -234 -107 q-85 -106 -85 -291z" />
<glyph unicode="p" horiz-adv-x="1230" d="M164 -418v1475h164v-170q49 88 140 140t206 52q206 0 330 -143t124 -383q0 -253 -124 -414q-124 -162 -338 -162q-200 0 -314 152v-547h-188zM342 541q0 -184 86 -293q85 -109 219 -109q135 0 215 115q78 114 78 299q0 176 -76 270q-77 95 -217 95q-139 0 -222 -99 q-83 -100 -83 -278z" />
<glyph unicode="q" horiz-adv-x="1230" d="M102 545q0 238 127 387q127 147 330 147q115 0 206 -51q92 -51 138 -139v168h164v-1475h-188v549q-113 -154 -316 -154q-211 0 -336 160q-125 157 -125 408zM291 545q0 -187 78 -295q78 -111 213 -111t221 109t86 293q0 180 -82 278q-82 99 -221 99q-141 0 -218 -98 t-77 -275z" />
<glyph unicode="r" horiz-adv-x="753" d="M164 0v1057h176v-213q111 241 344 241q29 0 39 -2v-184q-20 2 -68 2q-113 0 -204 -86q-93 -87 -99 -237v-578h-188z" />
<glyph unicode="s" horiz-adv-x="1034" d="M82 334h180q15 -111 80 -159q67 -50 188 -50q124 0 188 43t64 123q0 119 -166 153l-213 45q-292 61 -292 287q0 143 102 224t291 81q187 0 298 -84t132 -247h-186q-30 182 -250 182q-213 0 -213 -139q0 -55 38 -90q37 -34 126 -52l204 -45q161 -38 235 -109 q75 -72 75 -190q0 -157 -117 -245q-118 -89 -324 -89q-402 0 -440 361z" />
<glyph unicode="t" horiz-adv-x="731" d="M82 911v146l158 -6v329h188v-331l242 8v-146l-242 9v-660q0 -59 22 -81q21 -21 80 -21h138v-158h-193q-123 0 -179 56t-56 180v684z" />
<glyph unicode="u" horiz-adv-x="1216" d="M164 324v733h188v-697q0 -223 211 -223q132 0 217 83q84 82 84 249v588h189v-1057h-176v150q-115 -177 -355 -177q-167 0 -263 93q-95 92 -95 258z" />
<glyph unicode="v" horiz-adv-x="1081" d="M51 1057h203l211 -611l88 -284l86 284l201 611h190l-387 -1057h-186z" />
<glyph unicode="w" horiz-adv-x="1581" d="M51 1057h205l166 -611l63 -251l56 251l151 611h205l152 -611l51 -251l61 251l174 611h195l-344 -1057h-189l-149 631l-53 266l-58 -266l-159 -631h-193z" />
<glyph unicode="x" horiz-adv-x="1155" d="M51 0l434 561l-383 496h230l248 -363l243 363h230l-379 -496l430 -561h-230l-294 432l-299 -432h-230z" />
<glyph unicode="y" horiz-adv-x="1103" d="M51 1057h205l274 -729l23 -127l305 856h195l-492 -1264q-47 -119 -111 -165t-180 -46h-116v158h98q70 0 107 29q36 29 69 112l49 129z" />
<glyph unicode="z" horiz-adv-x="1087" d="M102 0v133l613 772h-586v152h821v-115l-626 -790h661v-152h-883z" />
<glyph unicode="{" horiz-adv-x="763" d="M86 475v162q117 0 170 53t53 170v447q0 117 53 170t170 53h144v-162h-86q-58 0 -80 -21q-23 -21 -23 -79v-404q0 -127 -59 -205q-60 -79 -168 -102v-2q108 -23 168 -102q59 -78 59 -205v-406q0 -58 23 -79q22 -21 80 -21h86v-162h-144q-117 0 -170 53t-53 170v449 q0 117 -53 170t-170 53z" />
<glyph unicode="|" horiz-adv-x="536" d="M174 -418v1948h188v-1948h-188z" />
<glyph unicode="}" horiz-adv-x="763" d="M86 -258h86q58 0 80 21t22 79v406q0 126 60 205t168 102v2q-108 23 -168 102t-60 205v404q0 58 -22 79t-80 21h-86v162h143q117 0 170 -53q54 -54 54 -170v-447q0 -117 53 -170t170 -53v-162q-117 0 -170 -53t-53 -170v-449q0 -116 -54 -170q-53 -53 -170 -53h-143v162z " />
<glyph unicode="~" d="M127 504q0 174 78 267t211 93q79 4 177 -47q91 -48 179 -102q83 -51 125 -47q123 0 123 196h164q0 -172 -78 -266t-211 -94q-142 0 -266 100q-129 98 -215 98q-123 0 -123 -198h-164z" />
<glyph unicode="&#xa1;" horiz-adv-x="559" d="M174 850v207h211v-207h-211zM184 18l56 695h79l56 -695v-419h-191v419z" />
<glyph unicode="&#xa2;" d="M182 520q0 238 109 385q108 145 305 172v287h162v-285q154 -18 250 -113q96 -94 120 -255h-178q-44 215 -266 215q-313 0 -313 -398q0 -187 81 -292t230 -105q223 0 270 238h176q-24 -168 -119 -269q-93 -99 -251 -120v-275h-162v272q-194 22 -304 164t-110 379z" />
<glyph unicode="&#xa3;" d="M109 0v164h20q157 0 266 86q107 86 107 211q0 79 -45 155l-348 -8v156l241 -6q-123 164 -123 311q0 176 125 295q127 121 348 121q213 0 342 -115q128 -114 146 -309h-187q-15 126 -94 192t-207 66q-134 0 -210 -73q-74 -71 -74 -195q0 -125 135 -295l469 8v-156l-375 8 q33 -68 33 -143q0 -187 -189 -309h713v-164h-1093z" />
<glyph unicode="&#xa4;" d="M55 244l191 182q-96 134 -96 309t96 309l-191 183l109 108l182 -190q123 98 309 98q187 0 310 -98l182 190l108 -108l-190 -183q96 -134 96 -309t-96 -309l190 -182l-108 -109l-182 191q-125 -99 -310 -99t-309 99l-182 -191zM317 735q0 -156 93 -254q91 -96 245 -96 q155 0 246 96q92 97 92 254t-92 254q-92 96 -246 96t-245 -96q-93 -98 -93 -254z" />
<glyph unicode="&#xa5;" d="M-2 1458h229l375 -598l62 -102h6l59 102l367 598h217l-451 -700h342v-164h-444v-178h444v-164h-444v-252h-191v252h-444v164h444v178h-444v164h338z" />
<glyph unicode="&#xa6;" horiz-adv-x="536" d="M174 270h188v-688h-188v688zM174 842v688h188v-688h-188z" />
<glyph unicode="&#xa7;" horiz-adv-x="1288" d="M131 702q0 201 195 297q-60 84 -60 191q0 151 110 240q109 88 290 88q178 0 286 -90q106 -88 123 -252h-178q-22 188 -233 188q-106 0 -164 -44t-58 -126q0 -138 189 -199l229 -73q297 -94 297 -336q0 -201 -194 -297q59 -83 59 -191q0 -150 -110 -239q-109 -88 -289 -88 q-181 0 -287 90t-123 254h176q24 -191 240 -191q106 0 162 44q55 43 55 126q0 138 -189 199l-229 74q-297 95 -297 335zM301 719q0 -144 188 -205l265 -86q48 -15 92 -39q141 45 141 180q0 144 -188 205l-264 86q-50 16 -93 39q-141 -47 -141 -180z" />
<glyph unicode="&#xa8;" horiz-adv-x="1024" d="M199 1255v203h188v-203h-188zM637 1255v203h188v-203h-188z" />
<glyph unicode="&#xa9;" horiz-adv-x="1804" d="M131 729q0 335 217 549q218 215 553 215q337 0 555 -215q217 -214 217 -549q0 -333 -217 -547q-217 -217 -555 -217q-334 0 -551 217q-219 214 -219 547zM272 729q0 -278 179 -457q174 -180 450 -180q279 0 453 180q176 181 176 457q0 275 -176 459q-175 178 -453 178 q-275 0 -450 -178q-179 -184 -179 -459zM569 731q0 179 90 279t244 100q256 0 305 -223l-131 -23q-38 119 -174 119q-196 0 -196 -252q0 -250 196 -250q139 0 176 123l129 -22q-51 -230 -305 -230q-154 0 -244 101t-90 278z" />
<glyph unicode="&#xaa;" horiz-adv-x="999" d="M164 961q0 94 61 149q61 56 174 66l281 26v33q0 63 -41 92t-131 29q-143 0 -182 -74l-140 49q72 154 318 154q174 0 253 -66t79 -198v-459h-127l-17 90q-107 -107 -278 -107q-119 0 -185 60q-65 59 -65 156zM324 965q0 -88 122 -88q69 0 125 25q58 26 83 54q26 29 26 45 v89l-217 -21q-139 -12 -139 -104z" />
<glyph unicode="&#xab;" horiz-adv-x="1413" d="M164 426v201l512 446v-209l-391 -338l391 -338v-208zM737 426v201l512 446v-209l-391 -338l391 -338v-208z" />
<glyph unicode="&#xac;" d="M141 647v164h1030v-571h-163v407h-867z" />
<glyph unicode="&#xad;" horiz-adv-x="778" d="M102 426v170h574v-170h-574z" />
<glyph unicode="&#xae;" horiz-adv-x="1263" d="M131 1004q0 203 145 344q146 141 357 141t356 -141q144 -141 144 -344q0 -204 -144 -345q-145 -141 -356 -141t-357 141q-145 141 -145 345zM233 1004q0 -162 115 -277q113 -113 285 -113q169 0 282 113q115 115 115 277q0 163 -115 278q-113 113 -282 113 q-172 0 -285 -113q-115 -115 -115 -278zM438 750v520h221q86 0 135 -38q48 -38 48 -108q0 -90 -76 -123q55 -21 61 -96l7 -76q1 -46 24 -79h-92q-20 26 -21 79l-4 54q-4 43 -19 59t-52 16h-142v-208h-90zM528 1040h140q82 0 82 74t-91 74h-131v-148z" />
<glyph unicode="&#xaf;" horiz-adv-x="1024" d="M184 1253v146h656v-146h-656z" />
<glyph unicode="&#xb0;" horiz-adv-x="913" d="M102 1130q0 153 101 254t254 101t254 -101q100 -100 100 -254q0 -153 -100 -253q-101 -101 -254 -101t-254 101t-101 253zM248 1130q0 -92 59 -151q57 -61 150 -61q91 0 151 61q58 58 58 151t-59 154q-58 59 -150 59q-93 0 -151 -59t-58 -154z" />
<glyph unicode="&#xb1;" d="M94 676v164h479v338h164v-338h482v-164h-482v-336h-164v336h-479zM115 0v164h1083v-164h-1083z" />
<glyph unicode="&#xb2;" horiz-adv-x="882" d="M102 762q0 276 215 381l175 84q124 61 124 155q0 134 -167 134q-90 0 -127 -40q-36 -39 -41 -128h-164q5 146 89 226q86 81 243 81q150 0 241 -73q90 -72 90 -200q0 -92 -52 -157q-53 -67 -165 -119l-106 -51q-81 -39 -119 -72q-36 -31 -43 -80h483v-141h-676z" />
<glyph unicode="&#xb3;" horiz-adv-x="911" d="M102 1020h164q6 -158 193 -158q186 0 186 137q0 134 -184 134h-80v141h80q153 0 153 121q0 127 -170 127q-168 0 -176 -138h-164q0 127 92 199t246 72q155 0 246 -67q90 -66 90 -179q0 -73 -37 -123q-38 -52 -102 -69v-5q81 -23 125 -79q45 -57 45 -138q0 -119 -96 -192 q-97 -74 -256 -74q-166 0 -260 76q-95 77 -95 215z" />
<glyph unicode="&#xb4;" horiz-adv-x="1024" d="M293 1190l180 317h258l-272 -317h-166z" />
<glyph unicode="&#xb5;" horiz-adv-x="1216" d="M164 -418v1475h188v-697q0 -223 211 -223q132 0 217 83q84 82 84 249v588h189v-1057h-181l9 156q-114 -183 -342 -183q-144 0 -226 82l-4 -4l43 -276v-193h-188z" />
<glyph unicode="&#xb6;" horiz-adv-x="1214" d="M88 1098q0 172 105 266q104 94 296 94h551v-1669h-163v1505h-224v-1505h-164v948q-192 0 -296 94q-105 95 -105 267z" />
<glyph unicode="&#xb7;" horiz-adv-x="735" d="M262 618v207h211v-207h-211z" />
<glyph unicode="&#xb8;" horiz-adv-x="1024" d="M326 -152l96 152h113l-82 -127h43q97 0 149 -46q53 -47 53 -132q0 -94 -73 -146q-74 -53 -205 -53h-66v111h52q147 0 147 82q0 63 -86 63h-86z" />
<glyph unicode="&#xb9;" horiz-adv-x="614" d="M82 1370v121h72q141 0 159 108l6 37h132v-874h-158v608h-211z" />
<glyph unicode="&#xba;" horiz-adv-x="944" d="M102 1114q0 160 103 268q103 103 268 103q163 0 266 -103q103 -108 103 -268q0 -164 -104 -266q-105 -103 -265 -103q-166 0 -268 105q-103 103 -103 264zM260 1114q0 -118 55 -177q56 -60 158 -60q101 0 155 60t54 177q0 240 -209 240q-102 0 -158 -61q-55 -59 -55 -179 z" />
<glyph unicode="&#xbb;" horiz-adv-x="1413" d="M164 -20v208l391 338l-391 338v209l512 -446v-201zM737 -20v208l391 338l-391 338v209l512 -446v-201z" />
<glyph unicode="&#xbc;" horiz-adv-x="2152" d="M174 1266v120h72q142 0 160 109l6 37h131v-875h-158v609h-211zM430 -31l918 1520h186l-913 -1520h-191zM1241 197v137l414 540h168v-555l155 5v-127l-155 4v-201h-158v201zM1380 324l285 -5v371h-8z" />
<glyph unicode="&#xbd;" horiz-adv-x="2172" d="M174 1266v120h72q142 0 160 109l6 37h131v-875h-158v609h-211zM430 -31l918 1520h186l-913 -1520h-191zM1321 0q0 276 215 381l174 84q125 62 125 156q0 133 -168 133q-90 0 -127 -40q-36 -39 -41 -128h-164q5 146 89 226q86 81 243 81q151 0 242 -73q90 -72 90 -199 q0 -93 -52 -158q-53 -67 -165 -119l-107 -51q-81 -39 -119 -72q-36 -31 -43 -80h484v-141h-676z" />
<glyph unicode="&#xbe;" horiz-adv-x="2347" d="M164 915h164q6 -157 192 -157q187 0 187 137q0 133 -185 133h-80v141h80q154 0 154 121q0 127 -170 127q-168 0 -176 -137h-164q0 127 91 199q90 71 247 71q156 0 246 -66t90 -179q0 -73 -37 -123q-39 -52 -103 -70v-4q80 -23 125 -80t45 -137q0 -119 -96 -193 q-95 -73 -256 -73q-167 0 -260 75q-94 76 -94 215zM635 -31l917 1520h187l-914 -1520h-190zM1446 197v137l414 540h168v-555l155 5v-127l-155 4v-201h-158v201zM1585 324l285 -5v371h-8z" />
<glyph unicode="&#xbf;" horiz-adv-x="1247" d="M131 -23q0 226 211 361l98 63q77 50 107 107q24 52 24 172v16h179v-63q0 -136 -56 -221q-56 -87 -196 -170q-191 -113 -191 -269q0 -120 86 -185q85 -64 236 -64q160 0 237 76q77 75 92 243h185q-12 -225 -143 -348t-371 -123q-229 0 -363 107q-135 108 -135 298z M553 850v207h211v-207h-211z" />
<glyph unicode="&#xc0;" horiz-adv-x="1466" d="M61 0l566 1458h215l563 -1458h-211l-154 428h-618l-158 -428h-203zM410 1909h258l180 -318h-166zM483 594h498l-199 553l-47 151l-49 -151z" />
<glyph unicode="&#xc1;" horiz-adv-x="1466" d="M61 0l566 1458h215l563 -1458h-211l-154 428h-618l-158 -428h-203zM483 594h498l-199 553l-47 151l-49 -151zM602 1591l180 318h258l-272 -318h-166z" />
<glyph unicode="&#xc2;" horiz-adv-x="1466" d="M61 0l566 1458h215l563 -1458h-211l-154 428h-618l-158 -428h-203zM393 1591l242 318h196l242 -318h-196l-144 205l-143 -205h-197zM483 594h498l-199 553l-47 151l-49 -151z" />
<glyph unicode="&#xc3;" horiz-adv-x="1466" d="M61 0l566 1458h215l563 -1458h-211l-154 428h-618l-158 -428h-203zM340 1622q0 157 62 235t171 78q121 0 189 -84q66 -86 129 -86q46 0 67 39q20 38 25 131h143q0 -156 -62 -234q-63 -79 -171 -79q-120 0 -186 86q-68 84 -132 84q-46 0 -67 -39q-20 -38 -25 -131h-143z M483 594h498l-199 553l-47 151l-49 -151z" />
<glyph unicode="&#xc4;" horiz-adv-x="1466" d="M61 0l566 1458h215l563 -1458h-211l-154 428h-618l-158 -428h-203zM420 1638v203h188v-203h-188zM483 594h498l-199 553l-47 151l-49 -151zM858 1638v203h189v-203h-189z" />
<glyph unicode="&#xc5;" horiz-adv-x="1466" d="M61 0l531 1366q-141 76 -141 246q0 122 79 202t203 80t203 -80q80 -82 80 -202q0 -168 -139 -246l528 -1366h-211l-154 428h-618l-158 -428h-203zM483 594h498l-199 553l-47 151l-49 -151zM582 1612q0 -70 42 -112t109 -42q68 0 110 42t42 112q0 68 -41 114 q-44 41 -111 41t-108 -41q-43 -43 -43 -114z" />
<glyph unicode="&#xc6;" horiz-adv-x="2328" d="M61 0l879 1458h1237v-166h-842v-458h776v-166h-776v-502h860v-166h-1050v385h-653l-232 -385h-199zM586 541h559v762h-103z" />
<glyph unicode="&#xc7;" horiz-adv-x="1499" d="M131 729q0 340 180 547q179 209 477 209q231 0 400 -127q166 -124 201 -340h-195q-33 142 -137 219q-105 78 -260 78q-221 0 -346 -156q-125 -157 -125 -430q0 -275 125 -435q125 -159 346 -159q175 0 285 102q110 103 137 293h188q-37 -259 -195 -409t-403 -156 l-70 -108h43q98 0 150 -46q53 -47 53 -133q0 -92 -74 -145t-204 -53h-66v110h51q148 0 148 82q0 64 -86 64h-86l-56 96l88 139q-265 34 -415 240q-154 207 -154 518z" />
<glyph unicode="&#xc8;" horiz-adv-x="1357" d="M174 0v1458h1032v-166h-841v-458h776v-166h-776v-502h860v-166h-1051zM385 1909h258l180 -318h-166z" />
<glyph unicode="&#xc9;" horiz-adv-x="1357" d="M174 0v1458h1032v-166h-841v-458h776v-166h-776v-502h860v-166h-1051zM578 1591l180 318h258l-273 -318h-165z" />
<glyph unicode="&#xca;" horiz-adv-x="1357" d="M174 0v1458h1032v-166h-841v-458h776v-166h-776v-502h860v-166h-1051zM369 1591l241 318h197l242 -318h-197l-143 205l-144 -205h-196z" />
<glyph unicode="&#xcb;" horiz-adv-x="1357" d="M174 0v1458h1032v-166h-841v-458h776v-166h-776v-502h860v-166h-1051zM395 1638v203h189v-203h-189zM834 1638v203h188v-203h-188z" />
<glyph unicode="&#xcc;" horiz-adv-x="538" d="M-53 1909h258l180 -318h-166zM174 0v1458h191v-1458h-191z" />
<glyph unicode="&#xcd;" horiz-adv-x="538" d="M139 1591l180 318h259l-273 -318h-166zM174 0v1458h191v-1458h-191z" />
<glyph unicode="&#xce;" horiz-adv-x="538" d="M-70 1591l242 318h197l241 -318h-196l-144 205l-143 -205h-197zM174 0v1458h191v-1458h-191z" />
<glyph unicode="&#xcf;" horiz-adv-x="538" d="M-43 1638v203h188v-203h-188zM174 0v1458h191v-1458h-191zM395 1638v203h189v-203h-189z" />
<glyph unicode="&#xd0;" horiz-adv-x="1644" d="M82 653v166l276 -10v649h527q311 0 476 -190t165 -539q0 -344 -174 -536q-175 -193 -508 -193h-486v664zM549 166h287q252 0 373 139q122 140 122 424q0 287 -120 425t-365 138h-297v-485l393 12v-166l-393 13v-500z" />
<glyph unicode="&#xd1;" horiz-adv-x="1507" d="M174 0v1458h211l768 -1190v1190h180v-1458h-217l-762 1184v-1184h-180zM360 1622q0 156 63 235q62 78 171 78q120 0 188 -84q66 -86 129 -86q47 0 68 39q20 38 25 131h143q0 -155 -63 -234t-171 -79q-120 0 -186 86q-67 84 -131 84q-47 0 -68 -39q-19 -36 -24 -131h-144z " />
<glyph unicode="&#xd2;" horiz-adv-x="1640" d="M131 729q0 332 193 545q190 211 495 211q308 0 500 -211q190 -212 190 -545q0 -340 -190 -551q-195 -213 -500 -213q-304 0 -495 215q-193 213 -193 549zM326 729q0 -269 137 -432q137 -162 358 -162q223 0 359 162q135 159 135 432q0 268 -137 426q-137 160 -357 160 q-218 0 -358 -160q-137 -158 -137 -426zM496 1909h258l180 -318h-166z" />
<glyph unicode="&#xd3;" horiz-adv-x="1640" d="M131 729q0 332 193 545q190 211 495 211q308 0 500 -211q190 -212 190 -545q0 -340 -190 -551q-195 -213 -500 -213q-304 0 -495 215q-193 213 -193 549zM326 729q0 -269 137 -432q137 -162 358 -162q223 0 359 162q135 159 135 432q0 268 -137 426q-137 160 -357 160 q-218 0 -358 -160q-137 -158 -137 -426zM688 1591l180 318h258l-272 -318h-166z" />
<glyph unicode="&#xd4;" horiz-adv-x="1640" d="M131 729q0 332 193 545q190 211 495 211q308 0 500 -211q190 -212 190 -545q0 -340 -190 -551q-195 -213 -500 -213q-304 0 -495 215q-193 213 -193 549zM326 729q0 -269 137 -432q137 -162 358 -162q223 0 359 162q135 159 135 432q0 268 -137 426q-137 160 -357 160 q-218 0 -358 -160q-137 -158 -137 -426zM479 1591l242 318h197l241 -318h-196l-144 205l-143 -205h-197z" />
<glyph unicode="&#xd5;" horiz-adv-x="1640" d="M131 729q0 332 193 545q190 211 495 211q308 0 500 -211q190 -212 190 -545q0 -340 -190 -551q-195 -213 -500 -213q-304 0 -495 215q-193 213 -193 549zM326 729q0 -269 137 -432q137 -162 358 -162q223 0 359 162q135 159 135 432q0 268 -137 426q-137 160 -357 160 q-218 0 -358 -160q-137 -158 -137 -426zM426 1622q0 157 62 235t171 78q121 0 189 -84q66 -86 129 -86q46 0 67 39q20 38 25 131h143q0 -156 -62 -234q-63 -79 -171 -79q-120 0 -186 86q-67 84 -131 84q-47 0 -68 -39q-20 -38 -25 -131h-143z" />
<glyph unicode="&#xd6;" horiz-adv-x="1640" d="M131 729q0 332 193 545q190 211 495 211q308 0 500 -211q190 -212 190 -545q0 -340 -190 -551q-195 -213 -500 -213q-304 0 -495 215q-193 213 -193 549zM326 729q0 -269 137 -432q137 -162 358 -162q223 0 359 162q135 159 135 432q0 268 -137 426q-137 160 -357 160 q-218 0 -358 -160q-137 -158 -137 -426zM506 1638v203h188v-203h-188zM944 1638v203h189v-203h-189z" />
<glyph unicode="&#xd7;" d="M131 217l418 418l-418 416l107 108l417 -418l418 418l109 -106l-418 -418l418 -420l-109 -106l-418 417l-417 -417z" />
<glyph unicode="&#xd8;" horiz-adv-x="1640" d="M131 729q0 332 193 545q190 211 495 211q266 0 449 -162l139 162l102 -88l-149 -174q149 -204 149 -494q0 -340 -190 -551q-195 -213 -500 -213q-248 0 -422 144l-121 -140l-102 88l127 148q-170 212 -170 524zM326 729q0 -226 100 -381l723 838q-131 129 -328 129 q-218 0 -358 -160q-137 -158 -137 -426zM514 246q124 -111 307 -111q223 0 359 162q135 159 135 432q0 207 -82 346z" />
<glyph unicode="&#xd9;" horiz-adv-x="1474" d="M174 461v997h191v-1003q0 -154 94 -236t278 -82q185 0 279 82t94 236v1003h190v-997q0 -237 -147 -365q-150 -129 -416 -129t-413 129q-150 124 -150 365zM414 1909h258l180 -318h-166z" />
<glyph unicode="&#xda;" horiz-adv-x="1474" d="M174 461v997h191v-1003q0 -154 94 -236t278 -82q185 0 279 82t94 236v1003h190v-997q0 -237 -147 -365q-150 -129 -416 -129t-413 129q-150 124 -150 365zM606 1591l180 318h258l-272 -318h-166z" />
<glyph unicode="&#xdb;" horiz-adv-x="1474" d="M174 461v997h191v-1003q0 -154 94 -236t278 -82q185 0 279 82t94 236v1003h190v-997q0 -237 -147 -365q-150 -129 -416 -129t-413 129q-150 124 -150 365zM397 1591l242 318h197l241 -318h-196l-144 205l-143 -205h-197z" />
<glyph unicode="&#xdc;" horiz-adv-x="1474" d="M174 461v997h191v-1003q0 -154 94 -236t278 -82q185 0 279 82t94 236v1003h190v-997q0 -237 -147 -365q-150 -129 -416 -129t-413 129q-150 124 -150 365zM424 1638v203h188v-203h-188zM862 1638v203h189v-203h-189z" />
<glyph unicode="&#xdd;" horiz-adv-x="1400" d="M43 1458h229l375 -598l64 -108l63 108l367 598h217l-553 -860v-598h-191v598zM569 1591l181 318h258l-273 -318h-166z" />
<glyph unicode="&#xde;" horiz-adv-x="1331" d="M174 0v1458h191v-270h409q222 0 346 -109q123 -108 123 -309q0 -203 -124 -317q-126 -115 -349 -115h-405v-338h-191zM365 504h409q135 0 207 69t72 195q0 254 -289 254h-399v-518z" />
<glyph unicode="&#xdf;" horiz-adv-x="1239" d="M164 0v1049q0 436 448 436q215 0 331 -101t116 -262q0 -226 -207 -311v-4q285 -85 285 -375q0 -202 -138 -317t-376 -115h-109v158h127q150 0 228 71q79 72 79 205q0 136 -81 206q-82 71 -234 71h-119v157h92q122 0 192 63t70 171q0 105 -67 165t-195 60 q-254 0 -254 -237v-1090h-188z" />
<glyph unicode="&#xe0;" horiz-adv-x="1167" d="M106 281q0 282 361 329l270 35q76 7 76 80v45q0 164 -238 164q-119 0 -175 -43t-64 -146h-186q27 345 440 345q414 0 414 -338v-521q0 -51 20 -71q21 -21 72 -21h30v-139h-100q-170 0 -182 156q-55 -83 -156 -133q-102 -50 -227 -50q-165 0 -260 81t-95 227zM266 1507 h258l181 -317h-166zM293 289q0 -80 54 -125t149 -45q129 0 223 76t94 176v147l-315 -47q-205 -30 -205 -182z" />
<glyph unicode="&#xe1;" horiz-adv-x="1167" d="M106 281q0 282 361 329l270 35q76 7 76 80v45q0 164 -238 164q-119 0 -175 -43t-64 -146h-186q27 345 440 345q414 0 414 -338v-521q0 -51 20 -71q21 -21 72 -21h30v-139h-100q-170 0 -182 156q-55 -83 -156 -133q-102 -50 -227 -50q-165 0 -260 81t-95 227zM293 289 q0 -80 54 -125t149 -45q129 0 223 76t94 176v147l-315 -47q-205 -30 -205 -182zM459 1190l180 317h258l-272 -317h-166z" />
<glyph unicode="&#xe2;" horiz-adv-x="1167" d="M106 281q0 282 361 329l270 35q76 7 76 80v45q0 164 -238 164q-119 0 -175 -43t-64 -146h-186q27 345 440 345q414 0 414 -338v-521q0 -51 20 -71q21 -21 72 -21h30v-139h-100q-170 0 -182 156q-55 -83 -156 -133q-102 -50 -227 -50q-165 0 -260 81t-95 227zM250 1190 l242 317h196l242 -317h-197l-143 205l-144 -205h-196zM293 289q0 -80 54 -125t149 -45q129 0 223 76t94 176v147l-315 -47q-205 -30 -205 -182z" />
<glyph unicode="&#xe3;" horiz-adv-x="1167" d="M106 281q0 282 361 329l270 35q76 7 76 80v45q0 164 -238 164q-119 0 -175 -43t-64 -146h-187q27 345 441 345t414 -338v-521q0 -51 20 -71q21 -21 72 -21h30v-139h-100q-170 0 -182 156q-55 -83 -156 -133q-102 -50 -227 -50q-165 0 -260 81t-95 227zM197 1221 q0 156 62 234q63 79 171 79q120 0 188 -84q66 -86 130 -86q46 0 67 39q20 38 25 131h143q0 -157 -62 -235t-171 -78q-121 0 -187 86q-67 84 -131 84q-46 0 -67 -39q-20 -38 -25 -131h-143zM293 289q0 -80 54 -125t149 -45q129 0 223 76t94 176v147l-315 -47 q-205 -30 -205 -182z" />
<glyph unicode="&#xe4;" horiz-adv-x="1167" d="M106 281q0 282 361 329l270 35q76 7 76 80v45q0 164 -238 164q-119 0 -175 -43t-64 -146h-186q27 345 440 345q414 0 414 -338v-521q0 -51 20 -71q21 -21 72 -21h30v-139h-100q-170 0 -182 156q-55 -83 -156 -133q-102 -50 -227 -50q-165 0 -260 81t-95 227zM276 1255 v203h189v-203h-189zM293 289q0 -80 54 -125t149 -45q129 0 223 76t94 176v147l-315 -47q-205 -30 -205 -182zM715 1255v203h188v-203h-188z" />
<glyph unicode="&#xe5;" horiz-adv-x="1167" d="M106 281q0 282 361 329l270 35q76 7 76 80v45q0 164 -238 164q-119 0 -175 -43t-64 -146h-186q27 345 440 345q414 0 414 -338v-521q0 -51 20 -71q21 -21 72 -21h30v-139h-100q-170 0 -182 156q-55 -83 -156 -133q-102 -50 -227 -50q-165 0 -260 81t-95 227zM293 289 q0 -80 54 -125t149 -45q129 0 223 76t94 176v147l-315 -47q-205 -30 -205 -182zM307 1481q0 119 80 202q80 80 203 80t203 -80q79 -82 79 -202q0 -122 -79 -201q-80 -80 -203 -80t-203 80t-80 201zM438 1481q0 -70 42 -112t110 -42q67 0 109 42t42 112q0 68 -41 114 q-44 41 -110 41q-68 0 -109 -41q-43 -43 -43 -114z" />
<glyph unicode="&#xe6;" horiz-adv-x="1882" d="M106 295q0 146 102 235q101 88 300 88h303v121q0 195 -244 195q-109 0 -167 -44q-55 -42 -66 -145h-184q15 172 124 256q112 86 308 86q269 0 354 -163q127 157 360 157q224 0 354 -141q130 -140 130 -387v-70h-793q4 -172 88 -263t232 -91q219 0 292 211l173 -21 q-49 -163 -174 -253q-126 -91 -298 -91q-275 0 -403 222q-129 -224 -414 -224q-172 0 -274 87q-103 88 -103 235zM291 295q0 -81 57 -127q58 -47 152 -47q132 0 221 82q90 79 90 207v71l-315 -12q-205 -7 -205 -174zM989 618h615q-18 146 -97 230q-80 80 -209 80 q-127 0 -211 -78q-81 -78 -98 -232z" />
<glyph unicode="&#xe7;" horiz-adv-x="1140" d="M102 520q0 263 134 414q133 149 366 149q187 0 303 -97q117 -98 144 -275h-179q-44 215 -266 215q-313 0 -313 -398q0 -187 81 -292t230 -105q223 0 270 238h177q-27 -179 -131 -280q-105 -102 -277 -114l-74 -114h43q98 0 150 -46q53 -47 53 -132q0 -93 -74 -146 t-204 -53h-66v110h51q148 0 148 82q0 64 -86 64h-86l-56 96l88 139q-201 21 -313 163q-113 143 -113 382z" />
<glyph unicode="&#xe8;" horiz-adv-x="1185" d="M102 532q0 248 134 400q130 149 364 149q222 0 353 -141q130 -140 130 -387v-70h-792q4 -172 88 -263t231 -91q220 0 293 211l172 -21q-50 -164 -173 -253q-126 -91 -298 -91q-236 0 -366 156q-136 154 -136 401zM276 1507h259l180 -317h-166zM293 618h614 q-18 148 -96 230q-80 80 -209 80q-127 0 -211 -78q-81 -78 -98 -232z" />
<glyph unicode="&#xe9;" horiz-adv-x="1185" d="M102 532q0 248 134 400q130 149 364 149q222 0 353 -141q130 -140 130 -387v-70h-792q4 -172 88 -263t231 -91q220 0 293 211l172 -21q-50 -164 -173 -253q-126 -91 -298 -91q-236 0 -366 156q-136 154 -136 401zM293 618h614q-18 148 -96 230q-80 80 -209 80 q-127 0 -211 -78q-81 -78 -98 -232zM469 1190l180 317h258l-272 -317h-166z" />
<glyph unicode="&#xea;" horiz-adv-x="1185" d="M102 532q0 248 134 400q130 149 364 149q222 0 353 -141q130 -140 130 -387v-70h-792q4 -172 88 -263t231 -91q220 0 293 211l172 -21q-50 -164 -173 -253q-126 -91 -298 -91q-236 0 -366 156q-136 154 -136 401zM260 1190l242 317h196l242 -317h-197l-143 205l-143 -205 h-197zM293 618h614q-18 148 -96 230q-80 80 -209 80q-127 0 -211 -78q-81 -78 -98 -232z" />
<glyph unicode="&#xeb;" horiz-adv-x="1185" d="M102 532q0 248 134 400q130 149 364 149q222 0 353 -141q130 -140 130 -387v-70h-792q4 -172 88 -263t231 -91q220 0 293 211l172 -21q-50 -164 -173 -253q-126 -91 -298 -91q-236 0 -366 156q-136 154 -136 401zM287 1255v203h188v-203h-188zM293 618h614 q-18 148 -96 230q-80 80 -209 80q-127 0 -211 -78q-81 -78 -98 -232zM725 1255v203h188v-203h-188z" />
<glyph unicode="&#xec;" horiz-adv-x="516" d="M-66 1507h259l180 -317h-166zM164 0v1057h188v-1057h-188z" />
<glyph unicode="&#xed;" horiz-adv-x="516" d="M127 1190l180 317h258l-272 -317h-166zM164 0v1057h188v-1057h-188z" />
<glyph unicode="&#xee;" horiz-adv-x="516" d="M-82 1190l242 317h196l242 -317h-197l-143 205l-143 -205h-197zM164 0v1057h188v-1057h-188z" />
<glyph unicode="&#xef;" horiz-adv-x="516" d="M-25 1255v203h189v-203h-189zM164 0v1057h188v-1057h-188zM352 1255v203h189v-203h-189z" />
<glyph unicode="&#xf0;" horiz-adv-x="1175" d="M102 449q0 207 123 346q123 137 330 137q195 0 301 -123q-64 204 -268 373l-174 -144l-90 103l165 116q-73 51 -192 117l74 111q131 -63 235 -139l258 208l99 -120l-258 -166q368 -308 368 -746q0 -260 -129 -407q-130 -148 -360 -148q-222 0 -351 135q-131 134 -131 347 zM291 457q0 -143 80 -238q79 -94 217 -94q139 0 220 100q81 101 81 291v31q-23 107 -107 167t-200 60q-141 0 -216 -88t-75 -229z" />
<glyph unicode="&#xf1;" horiz-adv-x="1216" d="M164 0v1057h176v-150q114 176 354 176q168 0 263 -92q96 -93 96 -258v-733h-189v696q0 224 -211 224q-132 0 -217 -83q-84 -83 -84 -249v-588h-188zM227 1221q0 155 63 234t171 79q121 0 188 -84q66 -86 129 -86q47 0 68 39q19 36 24 131h144q0 -156 -63 -235 q-62 -78 -171 -78q-120 0 -186 86q-68 84 -131 84q-47 0 -68 -39q-19 -36 -24 -131h-144z" />
<glyph unicode="&#xf2;" horiz-adv-x="1222" d="M102 528q0 254 144 404q141 151 370 151q224 0 365 -147q139 -151 139 -399q0 -251 -143 -406q-146 -158 -367 -158q-229 0 -366 154q-142 154 -142 401zM291 528q0 -179 86 -288t233 -109q150 0 236 111q86 112 86 295q0 180 -85 284q-85 105 -237 105q-148 0 -234 -107 q-85 -106 -85 -291zM293 1507h258l180 -317h-166z" />
<glyph unicode="&#xf3;" horiz-adv-x="1222" d="M102 528q0 254 144 404q141 151 370 151q224 0 365 -147q139 -151 139 -399q0 -251 -143 -406q-146 -158 -367 -158q-229 0 -366 154q-142 154 -142 401zM291 528q0 -179 86 -288t233 -109q150 0 236 111q86 112 86 295q0 180 -85 284q-85 105 -237 105q-148 0 -234 -107 q-85 -106 -85 -291zM485 1190l181 317h258l-273 -317h-166z" />
<glyph unicode="&#xf4;" horiz-adv-x="1222" d="M102 528q0 254 144 404q141 151 370 151q224 0 365 -147q139 -151 139 -399q0 -251 -143 -406q-146 -158 -367 -158q-229 0 -366 154q-142 154 -142 401zM276 1190l242 317h197l241 -317h-196l-144 205l-143 -205h-197zM291 528q0 -179 86 -288t233 -109q150 0 236 111 q86 112 86 295q0 180 -85 284q-85 105 -237 105q-148 0 -234 -107q-85 -106 -85 -291z" />
<glyph unicode="&#xf5;" horiz-adv-x="1222" d="M102 528q0 254 144 404q141 151 370 151q224 0 365 -147q139 -151 139 -399q0 -251 -143 -406q-146 -158 -367 -158q-229 0 -366 154q-142 154 -142 401zM223 1221q0 155 63 234t171 79q121 0 188 -84q66 -86 129 -86q47 0 68 39q19 36 24 131h144q0 -156 -63 -235 q-62 -78 -171 -78q-120 0 -186 86q-68 84 -131 84q-47 0 -68 -39q-19 -36 -24 -131h-144zM291 528q0 -179 86 -288t233 -109q150 0 236 111q86 112 86 295q0 180 -85 284q-85 105 -237 105q-148 0 -234 -107q-85 -106 -85 -291z" />
<glyph unicode="&#xf6;" horiz-adv-x="1222" d="M102 528q0 254 144 404q141 151 370 151q224 0 365 -147q139 -151 139 -399q0 -251 -143 -406q-146 -158 -367 -158q-229 0 -366 154q-142 154 -142 401zM291 528q0 -179 86 -288t233 -109q150 0 236 111q86 112 86 295q0 180 -85 284q-85 105 -237 105q-148 0 -234 -107 q-85 -106 -85 -291zM303 1255v203h189v-203h-189zM741 1255v203h189v-203h-189z" />
<glyph unicode="&#xf7;" d="M74 541v184h1165v-184h-1165zM547 123v223h221v-223h-221zM547 920v223h221v-223h-221z" />
<glyph unicode="&#xf8;" horiz-adv-x="1222" d="M102 528q0 254 144 404q141 151 370 151q178 0 306 -96l82 96l102 -79l-94 -109q108 -144 108 -358q0 -251 -143 -406q-146 -158 -367 -158q-180 0 -311 101l-88 -101l-102 80l100 115q-107 146 -107 360zM291 528q0 -128 43 -217l475 549q-78 66 -199 66 q-148 0 -234 -107q-85 -106 -85 -291zM410 203q84 -72 200 -72q150 0 236 111q86 112 86 295q0 128 -43 217z" />
<glyph unicode="&#xf9;" horiz-adv-x="1216" d="M164 324v733h188v-697q0 -223 211 -223q132 0 217 83q84 82 84 249v588h189v-1057h-176v150q-115 -177 -355 -177q-167 0 -263 93q-95 92 -95 258zM285 1507h258l180 -317h-166z" />
<glyph unicode="&#xfa;" horiz-adv-x="1216" d="M164 324v733h188v-697q0 -223 211 -223q132 0 217 83q84 82 84 249v588h189v-1057h-176v150q-115 -177 -355 -177q-167 0 -263 93q-95 92 -95 258zM477 1190l180 317h258l-272 -317h-166z" />
<glyph unicode="&#xfb;" horiz-adv-x="1216" d="M164 324v733h188v-697q0 -223 211 -223q132 0 217 83q84 82 84 249v588h189v-1057h-176v150q-115 -177 -355 -177q-167 0 -263 93q-95 92 -95 258zM268 1190l242 317h197l241 -317h-196l-144 205l-143 -205h-197z" />
<glyph unicode="&#xfc;" horiz-adv-x="1216" d="M164 324v733h188v-697q0 -223 211 -223q132 0 217 83q84 82 84 249v588h189v-1057h-176v150q-115 -177 -355 -177q-167 0 -263 93q-95 92 -95 258zM295 1255v203h188v-203h-188zM733 1255v203h189v-203h-189z" />
<glyph unicode="&#xfd;" horiz-adv-x="1103" d="M51 1057h205l274 -729l23 -127l305 856h195l-492 -1264q-47 -119 -111 -165t-180 -46h-116v158h98q70 0 107 29q36 29 69 112l49 129zM422 1190l180 317h258l-272 -317h-166z" />
<glyph unicode="&#xfe;" horiz-adv-x="1230" d="M164 -418v1876h188v-530q108 151 322 151q206 0 330 -143t124 -383q0 -253 -124 -414q-124 -162 -338 -162q-200 0 -314 152v-547h-188zM342 541q0 -184 86 -293q85 -109 219 -109q135 0 215 115q78 114 78 299q0 176 -76 270q-77 95 -217 95q-139 0 -222 -99 q-83 -100 -83 -278z" />
<glyph unicode="&#xff;" horiz-adv-x="1103" d="M51 1057h205l274 -729l23 -127l305 856h195l-492 -1264q-47 -119 -111 -165t-180 -46h-116v158h98q70 0 107 29q36 29 69 112l49 129zM240 1255v203h188v-203h-188zM678 1255v203h188v-203h-188z" />
<glyph unicode="&#x152;" horiz-adv-x="2498" d="M131 729q0 332 193 545q190 211 497 211q331 0 494 -246v219h1032v-166h-842v-458h776v-166h-776v-502h860v-166h-1050v223q-167 -258 -496 -258q-306 0 -497 215q-191 214 -191 549zM326 729q0 -269 137 -432q135 -162 360 -162q221 0 357 156q135 156 135 438 q0 275 -137 432q-137 154 -357 154q-223 0 -358 -158q-137 -158 -137 -428z" />
<glyph unicode="&#x153;" horiz-adv-x="2015" d="M102 528q0 254 144 404q141 151 370 151q272 0 408 -204q130 202 406 202q222 0 353 -141q130 -140 130 -387v-70h-793q4 -172 88 -263t232 -91q220 0 293 211l172 -21q-50 -164 -173 -253q-126 -91 -298 -91q-277 0 -412 213q-146 -215 -412 -215q-229 0 -366 154 q-142 154 -142 401zM291 528q0 -179 86 -288t233 -109q150 0 236 111q86 112 86 295q0 180 -85 284q-85 105 -237 105q-148 0 -234 -107q-85 -106 -85 -291zM1122 618h615q-18 146 -97 230q-80 80 -208 80q-127 0 -211 -78q-82 -79 -99 -232z" />
<glyph unicode="&#x178;" horiz-adv-x="1400" d="M43 1458h229l375 -598l64 -108l63 108l367 598h217l-553 -860v-598h-191v598zM387 1638v203h188v-203h-188zM825 1638v203h189v-203h-189z" />
<glyph unicode="&#x2c6;" horiz-adv-x="1024" d="M172 1190l242 317h196l242 -317h-197l-143 205l-143 -205h-197z" />
<glyph unicode="&#x2dc;" horiz-adv-x="1024" d="M119 1303q0 156 62 234q63 79 171 79q122 0 189 -84q66 -86 129 -86q46 0 67 39q20 38 25 131h143q0 -157 -62 -235t-171 -78q-121 0 -187 86q-67 84 -131 84q-46 0 -67 -39q-20 -38 -25 -131h-143z" />
<glyph unicode="&#x2000;" horiz-adv-x="967" />
<glyph unicode="&#x2001;" horiz-adv-x="1935" />
<glyph unicode="&#x2002;" horiz-adv-x="967" />
<glyph unicode="&#x2003;" horiz-adv-x="1935" />
<glyph unicode="&#x2004;" horiz-adv-x="645" />
<glyph unicode="&#x2005;" horiz-adv-x="483" />
<glyph unicode="&#x2006;" horiz-adv-x="322" />
<glyph unicode="&#x2007;" horiz-adv-x="322" />
<glyph unicode="&#x2008;" horiz-adv-x="241" />
<glyph unicode="&#x2009;" horiz-adv-x="387" />
<glyph unicode="&#x200a;" horiz-adv-x="107" />
<glyph unicode="&#x2010;" horiz-adv-x="778" d="M102 426v170h574v-170h-574z" />
<glyph unicode="&#x2011;" horiz-adv-x="778" d="M102 426v170h574v-170h-574z" />
<glyph unicode="&#x2012;" horiz-adv-x="778" d="M102 426v170h574v-170h-574z" />
<glyph unicode="&#x2013;" horiz-adv-x="1095" d="M102 426v170h891v-170h-891z" />
<glyph unicode="&#x2014;" horiz-adv-x="1697" d="M102 426v170h1493v-170h-1493z" />
<glyph unicode="&#x2018;" horiz-adv-x="417" d="M106 969v276q0 221 203 221h21v-102h-21q-96 0 -96 -96v-105l119 11v-205h-226z" />
<glyph unicode="&#x2019;" horiz-adv-x="417" d="M86 1253v205h225v-276q0 -221 -202 -221h-21v102h21q96 0 96 96v105z" />
<glyph unicode="&#x201a;" horiz-adv-x="614" d="M195 0v205h225v-277q0 -221 -203 -221h-20v103h20q96 0 96 96v104z" />
<glyph unicode="&#x201c;" horiz-adv-x="780" d="M106 971v276q0 221 203 221h21v-102h-21q-96 0 -96 -96v-105l119 11v-205h-226zM469 971v276q0 221 203 221h20v-102h-20q-97 0 -97 -96v-105l119 11v-205h-225z" />
<glyph unicode="&#x201d;" horiz-adv-x="780" d="M86 1253v205h225v-276q0 -221 -202 -221h-21v102h21q96 0 96 96v105zM449 1253v205h225v-276q0 -221 -203 -221h-20v102h20q96 0 96 96v105z" />
<glyph unicode="&#x201e;" horiz-adv-x="970" d="M195 0v207h225v-277q0 -221 -203 -221h-20v103h20q96 0 96 96v102zM551 0v205h225v-277q0 -221 -203 -221h-20v103h20q97 0 97 96v104z" />
<glyph unicode="&#x2022;" horiz-adv-x="749" d="M174 389v359h401v-359h-401z" />
<glyph unicode="&#x2026;" horiz-adv-x="1718" d="M164 0v207h231v-207h-231zM743 0v207h232v-207h-232zM1323 0v207h231v-207h-231z" />
<glyph unicode="&#x202f;" horiz-adv-x="387" />
<glyph unicode="&#x2039;" horiz-adv-x="839" d="M164 426v201l512 446v-209l-391 -338l391 -338v-208z" />
<glyph unicode="&#x203a;" horiz-adv-x="839" d="M164 -20v208l391 338l-391 338v209l512 -446v-201z" />
<glyph unicode="&#x205f;" horiz-adv-x="483" />
<glyph unicode="&#x20ac;" d="M45 469v166h258q-4 76 -4 98q0 21 4 105h-258v166h289q63 225 230 353t409 128q158 0 293 -51v-179q-136 60 -281 60q-165 0 -278 -82q-115 -83 -170 -229h729v-166h-766q-6 -50 -6 -105q0 -22 4 -98h768v-166h-736q51 -157 164 -246q112 -88 285 -88q150 0 287 58v-179 q-129 -49 -291 -49q-249 0 -415 133t-228 371h-287z" />
<glyph unicode="&#x2122;" horiz-adv-x="2025" d="M102 1339v119h617v-119h-238v-663h-141v663h-238zM944 676v782h270l175 -708h24l166 708h283v-782h-144v708h-28l-166 -708h-246l-172 708h-29v-708h-133z" />
<glyph unicode="&#x25fc;" horiz-adv-x="1054" d="M0 0v1055h1055v-1055h-1055z" />
</font>
</defs>
</svg>
