<?xml version="1.0" standalone="no"?>
<!DOCTYPE svg PUBLIC "-//W3C//DTD SVG 1.1//EN" "http://www.w3.org/Graphics/SVG/1.1/DTD/svg11.dtd" >
<svg xmlns="http://www.w3.org/2000/svg" xmlns:xlink="http://www.w3.org/1999/xlink" version="1.1">
<metadata></metadata>
<defs>
<font id="helvetica_now_text_bold" horiz-adv-x="1351" >
<font-face units-per-em="2048" ascent="1792" descent="-256" />
<missing-glyph horiz-adv-x="512" />
<glyph unicode="&#xfb01;" horiz-adv-x="1222" d="M31 844v213l147 -6v69q0 164 87 251t251 87h152v-231h-80q-121 0 -121 -121v-55l201 6v-213l-201 6v-850h-289v850zM811 0v1057h289v-1057h-289zM811 1196v262h289v-262h-289z" />
<glyph unicode="&#xfb02;" horiz-adv-x="1222" d="M31 844v213l147 -6v69q0 164 87 251t251 87h152v-231h-80q-121 0 -121 -121v-55l201 6v-213l-201 6v-850h-289v850zM811 0v1458h289v-1458h-289z" />
<glyph horiz-adv-x="0" />
<glyph horiz-adv-x="682" />
<glyph horiz-adv-x="0" />
<glyph horiz-adv-x="0" />
<glyph unicode="&#xd;" horiz-adv-x="681" />
<glyph unicode=" "  horiz-adv-x="512" />
<glyph unicode="&#x09;" horiz-adv-x="512" />
<glyph unicode="&#xa0;" horiz-adv-x="512" />
<glyph unicode="!" horiz-adv-x="577" d="M133 0v307h311v-307h-311zM137 1087v371h303v-371l-78 -608h-145z" />
<glyph unicode="&#x22;" horiz-adv-x="983" d="M123 866v596h266v-596h-266zM594 866v596h266v-596h-266z" />
<glyph unicode="#" horiz-adv-x="1480" d="M68 340v235l262 -6l47 340l-232 -6v238l265 -6l45 323h233l-45 -325h305l45 325h238l-45 -321l227 4v-238l-260 6l-47 -338l229 4v-235l-260 6l-49 -346h-238l50 348h-306l-49 -348h-233l49 344zM563 567h305l50 344h-306z" />
<glyph unicode="$" d="M117 475h280q5 -124 82 -176q79 -53 254 -53q154 0 225 40q72 40 72 126q0 59 -35 94t-116 53l-396 86q-163 35 -251 135q-89 101 -89 248q0 172 123 290q122 118 352 136v281h226v-285q209 -30 328 -148q121 -119 131 -298h-279q-12 109 -86 159q-73 49 -231 49 q-275 0 -275 -155q0 -118 143 -148l373 -82q371 -83 371 -391q0 -180 -124 -294t-351 -136v-301h-226v301q-233 22 -365 145q-130 121 -136 324z" />
<glyph unicode="%" horiz-adv-x="2396" d="M133 1034q0 223 98 340q99 119 283 119t283 -119q98 -117 98 -340q0 -222 -96 -346q-99 -123 -285 -123q-187 0 -283 123q-98 122 -98 346zM356 1030q0 -278 158 -278t158 278q0 144 -38 211q-38 66 -120 66t-120 -66q-38 -67 -38 -211zM629 -31l917 1520h217l-913 -1520 h-221zM1501 436q0 223 98 340q99 119 283 119t283 -119q98 -117 98 -340q0 -222 -96 -346q-99 -123 -285 -123q-187 0 -283 123q-98 122 -98 346zM1724 432q0 -278 158 -278t158 278q0 144 -38 211q-38 66 -120 66t-120 -66q-38 -67 -38 -211z" />
<glyph unicode="&#x26;" horiz-adv-x="1501" d="M123 377q0 297 348 454l-10 13q-148 187 -148 317q0 145 111 240q112 92 278 92q176 0 287 -98q111 -99 111 -244q0 -225 -258 -383l184 -225q49 107 64 241h276q-33 -240 -174 -446l276 -340h-346l-110 143q-179 -172 -420 -172q-210 0 -338 113q-131 113 -131 295z M422 397q0 -80 55 -129t148 -49q134 0 239 111l-241 307q-201 -99 -201 -240zM590 1139q0 -62 57 -131l43 -54q144 90 144 181q0 55 -35 88q-33 32 -88 32q-53 0 -87 -31t-34 -85z" />
<glyph unicode="'" horiz-adv-x="512" d="M123 866v596h266v-596h-266z" />
<glyph unicode="(" horiz-adv-x="720" d="M72 547q0 547 301 983h280q-291 -438 -291 -983q0 -521 291 -965h-280q-301 437 -301 965z" />
<glyph unicode=")" horiz-adv-x="720" d="M68 -418q290 442 290 965q0 547 -290 983h280q301 -436 301 -983q0 -528 -301 -965h-280z" />
<glyph unicode="*" horiz-adv-x="1099" d="M123 1071l72 205l266 -109l-17 291h211l-16 -291l266 109l72 -205l-277 -72l201 -223l-176 -125l-174 252l-170 -252l-176 125l196 223z" />
<glyph unicode="+" d="M154 514v246h430v438h266v-438h430v-246h-430v-440h-266v440h-430z" />
<glyph unicode="," horiz-adv-x="579" d="M123 0v307h334v-366q0 -267 -293 -267h-39v131h39q135 0 135 136v59h-176z" />
<glyph unicode="-" horiz-adv-x="778" d="M102 455v250h574v-250h-574z" />
<glyph unicode="." horiz-adv-x="583" d="M123 0v307h338v-307h-338z" />
<glyph unicode="/" horiz-adv-x="1021" d="M61 0l607 1458h293l-607 -1458h-293z" />
<glyph unicode="0" d="M80 737q0 356 157 555t439 199t439 -199t157 -555q0 -366 -156 -567q-156 -203 -440 -203q-282 0 -440 203q-156 201 -156 567zM387 731q0 -508 289 -508t289 508q0 504 -289 504t-289 -504z" />
<glyph unicode="1" horiz-adv-x="937" d="M68 993v203h106q139 0 217 72q64 58 76 172l2 18h268v-1458h-303v993h-366z" />
<glyph unicode="2" d="M137 0q0 174 72 302t235 249l279 205q85 64 122 123q38 61 38 139q0 104 -59 163q-58 58 -158 58q-105 0 -162 -64q-58 -66 -58 -188v-41h-292v27q0 244 137 381t381 137q238 0 383 -125q145 -127 145 -334q0 -284 -297 -481l-248 -164q-67 -43 -97 -75q-25 -27 -30 -58 h686v-254h-1077z" />
<glyph unicode="3" d="M100 496h299q5 -132 79 -206q75 -75 204 -75q118 0 183 59q67 61 67 158q0 101 -72 158t-201 57h-106v225h94q98 0 160 51q59 49 59 136t-58 136q-59 50 -163 50q-213 0 -223 -237h-289q18 483 524 483q238 0 376 -105t138 -278q0 -108 -58 -190q-58 -81 -163 -119v-4 q148 -33 226 -128q77 -93 77 -241q0 -203 -147 -332q-152 -129 -418 -129q-282 0 -433 143t-155 388z" />
<glyph unicode="4" d="M82 307v314l651 837h320v-907h219v-244h-219v-307h-297v307h-674zM338 551h418v530h-6z" />
<glyph unicode="5" d="M104 387l299 25q51 -187 265 -187q121 0 198 71q76 70 76 183q0 112 -75 181t-208 69q-132 0 -233 -88l-281 41l136 776h866v-266h-641l-49 -285l4 -2q124 80 291 80q213 0 354 -135q139 -135 139 -358q0 -234 -160 -379q-163 -146 -417 -146q-229 0 -381 113 q-153 114 -183 307z" />
<glyph unicode="6" d="M84 709q0 380 156 581t446 201q221 0 363 -109q141 -108 165 -295h-290q-17 72 -82 117q-66 45 -156 45q-293 0 -309 -436q139 182 381 182q229 0 370 -141q140 -145 140 -367q0 -230 -158 -376t-405 -146q-289 0 -453 189q-168 195 -168 555zM428 492q0 -119 74 -193 q77 -80 200 -80q119 0 191 77q72 76 72 191q0 119 -76 194q-77 75 -193 75q-117 0 -193 -74q-75 -74 -75 -190z" />
<glyph unicode="7" d="M135 1186v272h1082v-252q-272 -310 -388 -577q-118 -272 -133 -629h-340q0 593 514 1186h-735z" />
<glyph unicode="8" d="M82 428q0 134 74 232q74 99 204 139v8q-92 39 -149 123t-57 182q0 175 139 277t383 102t383 -102t139 -277q0 -104 -57 -189q-57 -86 -150 -116v-8q131 -41 205 -139t74 -232q0 -212 -160 -336q-158 -125 -434 -125t-434 125q-160 124 -160 336zM385 434q0 -106 80 -168 q77 -63 211 -63q135 0 213 63q78 62 78 168q0 108 -77 170t-214 62t-214 -62t-77 -170zM436 1073q0 -87 66 -137q63 -51 174 -51q113 0 176 51q63 50 63 137q0 88 -61 137q-67 47 -178 47q-112 0 -176 -47q-64 -50 -64 -137z" />
<glyph unicode="9" d="M84 954q0 231 158 377t405 146q289 0 453 -189q168 -195 168 -555q0 -380 -156 -581t-446 -201q-222 0 -363 108q-142 109 -166 295h291q16 -71 82 -116t156 -45q293 0 309 436q-139 -183 -381 -183q-229 0 -369 142q-141 141 -141 366zM387 954q0 -118 76 -193 q77 -75 192 -75q118 0 194 74q75 74 75 190q0 119 -74 193q-77 80 -201 80q-118 0 -190 -77q-72 -76 -72 -192z" />
<glyph unicode=":" horiz-adv-x="583" d="M123 0v307h338v-307h-338zM123 719v307h338v-307h-338z" />
<glyph unicode=";" horiz-adv-x="583" d="M123 0v307h334v-366q0 -267 -293 -267h-39v131h39q135 0 135 136v59h-176zM123 719v307h338v-307h-338z" />
<glyph unicode="&#x3c;" d="M147 487v267l1141 393v-287l-788 -239l788 -238v-287z" />
<glyph unicode="=" d="M164 266v246h1106v-246h-1106zM164 756v245h1106v-245h-1106z" />
<glyph unicode="&#x3e;" d="M147 96v287l789 238l-789 239v287l1141 -393v-267z" />
<glyph unicode="?" horiz-adv-x="1206" d="M57 1004q6 234 145 361q138 126 388 126q252 0 399 -117q146 -117 146 -309q0 -201 -183 -322l-96 -63q-66 -44 -87 -79q-21 -36 -21 -93v-29h-275v56q0 102 42 171q40 66 155 144q79 52 112 99t33 106q0 88 -64 134t-167 46q-224 0 -234 -231h-293zM455 0v307h311v-307 h-311z" />
<glyph unicode="@" horiz-adv-x="2203" d="M133 567q0 422 264 674t719 252q452 0 705 -231q250 -231 250 -588q0 -252 -123 -414t-340 -162q-203 0 -283 146q-108 -146 -305 -146q-180 0 -287 131q-108 131 -108 342q0 207 108 338q108 127 287 127q182 0 287 -129l22 94h219v-593q0 -121 103 -121q94 0 154 100 q61 102 61 264q0 282 -203 465q-202 178 -553 178q-350 0 -545 -192q-198 -192 -198 -535q0 -333 196 -528q198 -195 543 -195q214 0 442 84v-209q-202 -69 -432 -69q-457 0 -721 244q-262 243 -262 673zM891 569q0 -125 51 -195q51 -71 139 -71q79 0 131 54q54 55 70 145 v137q-16 87 -71 140q-53 52 -130 52q-88 0 -139 -70q-51 -71 -51 -192z" />
<glyph unicode="A" horiz-adv-x="1472" d="M51 0l516 1458h351l503 -1458h-323l-99 303h-528l-98 -303h-322zM553 553h367l-60 180l-123 420l-125 -420z" />
<glyph unicode="B" horiz-adv-x="1386" d="M133 0v1458h678q199 0 318 -95q118 -94 118 -261q0 -118 -61 -197t-176 -112q282 -72 282 -365q0 -186 -125 -305q-125 -123 -352 -123h-682zM436 256h326q113 0 174 53q59 52 59 148q0 93 -57 142q-58 50 -162 50h-340v-393zM436 895h309q104 0 154 43q51 44 51 119 q0 155 -192 155h-322v-317z" />
<glyph unicode="C" horiz-adv-x="1419" d="M72 729q0 348 192 555q195 207 490 207q266 0 430 -138q163 -138 184 -378h-289q-18 121 -99 187q-82 67 -212 67q-184 0 -289 -135q-104 -134 -104 -365q0 -239 104 -376q105 -138 289 -138q134 0 213 72q80 73 98 190h287q-18 -245 -182 -385q-163 -139 -434 -139 q-298 0 -488 213q-190 212 -190 563z" />
<glyph unicode="D" horiz-adv-x="1427" d="M133 0v1458h537q692 0 692 -729q0 -349 -165 -539t-486 -190h-578zM436 256h236q210 0 299 110q88 109 88 363q0 258 -92 373q-95 110 -336 110h-195v-956z" />
<glyph unicode="E" horiz-adv-x="1296" d="M133 0v1458h1061v-256h-758v-315h682v-260h-682v-371h778v-256h-1081z" />
<glyph unicode="F" horiz-adv-x="1173" d="M133 0v1458h1030v-270h-727v-314h635v-270h-635v-604h-303z" />
<glyph unicode="G" horiz-adv-x="1519" d="M72 729q0 347 192 553q190 207 488 207q263 0 426 -128q160 -126 198 -364l-297 -18q-22 118 -102 184q-79 66 -209 66q-184 0 -289 -135q-104 -134 -104 -365q0 -237 104 -375q105 -139 289 -139q141 0 238 83q95 82 118 237h-346v253h608v-788h-196l-47 158 q-128 -191 -408 -191q-284 0 -473 209q-190 205 -190 553z" />
<glyph unicode="H" horiz-adv-x="1441" d="M133 0v1458h303v-563h570v563h303v-1458h-303v625h-570v-625h-303z" />
<glyph unicode="I" horiz-adv-x="569" d="M133 0v1458h303v-1458h-303z" />
<glyph unicode="J" horiz-adv-x="1177" d="M102 418v129h287v-133q0 -185 178 -185q174 0 174 185v1044h303v-1040q0 -214 -122 -332q-125 -119 -349 -119t-346 119q-125 119 -125 332z" />
<glyph unicode="K" horiz-adv-x="1417" d="M133 0v1458h303v-563l516 563h387l-553 -586l621 -872h-375l-461 670l-135 -135v-535h-303z" />
<glyph unicode="L" horiz-adv-x="1177" d="M133 0v1458h303v-1188h711v-270h-1014z" />
<glyph unicode="M" horiz-adv-x="1699" d="M133 0v1458h426l227 -856l60 -291l65 291l224 856h432v-1458h-283v547l35 713l-100 -441l-213 -819h-310l-217 834l-100 428l35 -715v-547h-281z" />
<glyph unicode="N" horiz-adv-x="1443" d="M133 0v1458h297l578 -936v936h303v-1458h-297l-578 936v-936h-303z" />
<glyph unicode="O" horiz-adv-x="1527" d="M72 731q0 345 194 555q195 207 494 207q296 0 497 -207q199 -208 199 -555q0 -349 -199 -563q-201 -215 -497 -215q-297 0 -492 215q-196 212 -196 563zM375 731q0 -235 104 -375q102 -141 281 -141t287 141q106 139 106 375q0 227 -106 363q-107 137 -287 137t-281 -137 q-104 -138 -104 -363z" />
<glyph unicode="P" horiz-adv-x="1251" d="M133 0v1458h580q236 0 372 -125t136 -344q0 -226 -140 -354q-139 -127 -395 -127h-250v-508h-303zM436 764h223q131 0 200 57t69 164q0 102 -64 160q-63 57 -174 57h-254v-438z" />
<glyph unicode="Q" horiz-adv-x="1519" d="M72 729q0 345 194 555q195 207 494 207q296 0 497 -207q199 -208 199 -555q0 -314 -170 -526l170 -144l-166 -180l-164 178q-162 -104 -366 -104q-297 0 -492 215q-196 212 -196 561zM375 729q0 -236 103 -375t282 -139q89 0 160 37l-150 125l166 180l139 -156 q78 133 78 328q0 227 -106 363q-107 137 -287 137t-281 -137q-104 -135 -104 -363z" />
<glyph unicode="R" horiz-adv-x="1386" d="M133 0v1458h680q241 0 352 -112q109 -115 109 -289q0 -283 -279 -357q111 -23 156 -80q46 -58 61 -157l60 -463h-311l-35 375q-10 99 -61 145q-49 45 -160 45h-269v-565h-303zM436 811h291q124 0 187 54t63 151q0 89 -52 138q-53 50 -157 50h-332v-393z" />
<glyph unicode="S" horiz-adv-x="1357" d="M80 453h297q6 -121 90 -187q83 -65 229 -65q125 0 197 48t72 134q0 72 -52 110t-172 68l-268 68q-174 44 -265 147q-93 105 -93 258q0 190 141 324q139 133 403 133t422 -131q157 -133 172 -348h-295q-15 109 -94 170t-202 61q-112 0 -177 -49t-65 -127q0 -120 170 -164 l291 -72q397 -96 397 -419q0 -213 -155 -336t-425 -123q-283 0 -447 133q-165 134 -171 367z" />
<glyph unicode="T" horiz-adv-x="1259" d="M41 1188v270h1178v-270h-437v-1188h-303v1188h-438z" />
<glyph unicode="U" horiz-adv-x="1398" d="M133 449v1009h303v-1014q0 -229 264 -229q263 0 263 229v1014h303v-1009q0 -238 -150 -367t-418 -129t-415 129q-150 129 -150 367z" />
<glyph unicode="V" horiz-adv-x="1378" d="M51 1458h322l194 -635l125 -481l125 481l189 635h321l-496 -1458h-286z" />
<glyph unicode="W" horiz-adv-x="1988" d="M51 1458h322l188 -729l70 -293l59 293l160 729h299l160 -729l59 -293l70 293l188 729h311l-426 -1458h-290l-224 995l-225 -995h-295z" />
<glyph unicode="X" horiz-adv-x="1396" d="M51 0l492 770l-432 688h338l190 -336l72 -164l71 160l201 340h330l-443 -690l476 -768h-345l-237 428l-59 139l-64 -141l-240 -426h-350z" />
<glyph unicode="Y" horiz-adv-x="1343" d="M37 1458h334l221 -452l80 -203l84 203l225 452h326l-484 -893v-565h-303v565z" />
<glyph unicode="Z" horiz-adv-x="1394" d="M94 0v236l805 964h-754v258h1155v-235l-804 -965h804v-258h-1206z" />
<glyph unicode="[" horiz-adv-x="741" d="M133 -418v1948h541v-225h-262v-1498h262v-225h-541z" />
<glyph unicode="\" horiz-adv-x="1021" d="M61 1458h293l607 -1458h-293z" />
<glyph unicode="]" horiz-adv-x="741" d="M68 -193h262v1498h-262v225h540v-1948h-540v225z" />
<glyph unicode="^" d="M221 401l348 1057h295l348 -1057h-290l-97 318q-53 180 -104 418q-29 -128 -107 -418l-88 -318h-305z" />
<glyph unicode="_" horiz-adv-x="1024" d="M0 -154h1024v-161h-1024v161z" />
<glyph unicode="`" horiz-adv-x="1024" d="M289 1458h352l96 -289h-192z" />
<glyph unicode="a" horiz-adv-x="1140" d="M51 291q0 256 322 319l368 74v78q0 115 -178 115q-88 0 -133 -33q-44 -33 -55 -107l-264 4q27 340 450 340q457 0 457 -393v-467q0 -148 41 -221h-293q-23 104 -23 106q-113 -137 -325 -137q-166 0 -266 88q-101 89 -101 234zM334 309q0 -57 44 -92t122 -35q108 0 175 65 q66 65 66 175v78l-270 -58q-137 -27 -137 -133z" />
<glyph unicode="b" horiz-adv-x="1214" d="M123 0v1458h289v-508q108 133 307 133q187 0 309 -149q123 -152 123 -402q0 -252 -127 -409q-128 -158 -328 -158q-201 0 -307 166l-10 -131h-256zM397 532q0 -140 67 -227q66 -86 171 -86q106 0 172 86q65 84 65 227t-65 227q-66 85 -172 85t-172 -85t-66 -227z" />
<glyph unicode="c" horiz-adv-x="1122" d="M68 524q0 257 137 408q139 151 370 151q203 0 330 -103t160 -292h-283q-47 170 -202 170q-110 0 -172 -87q-62 -88 -62 -247q0 -158 62 -246t172 -88q152 0 202 175h283q-33 -189 -162 -294q-130 -106 -328 -106q-230 0 -370 152q-137 151 -137 407z" />
<glyph unicode="d" horiz-adv-x="1218" d="M68 532q0 252 122 402q122 149 310 149q199 0 307 -133v508h289v-1458h-256l-11 131q-108 -166 -307 -166t-327 158q-127 157 -127 409zM346 532q0 -142 66 -227q66 -86 172 -86q105 0 171 86q66 85 66 227q0 143 -65 227q-66 85 -172 85t-172 -85t-66 -227z" />
<glyph unicode="e" horiz-adv-x="1193" d="M68 532q0 240 141 396q140 155 379 155q240 0 391 -159q151 -161 151 -432v-50h-765q8 -119 73 -186q66 -68 174 -68q153 0 205 138l287 -21q-52 -167 -178 -255q-124 -87 -308 -87q-255 0 -403 160q-147 159 -147 409zM362 639h469q-12 111 -73 172t-160 61 q-100 0 -162 -61q-64 -67 -74 -172z" />
<glyph unicode="f" horiz-adv-x="688" d="M31 844v213l147 -6v69q0 164 87 251t251 87h152v-231h-80q-121 0 -121 -121v-55l201 6v-213l-201 6v-850h-289v850z" />
<glyph unicode="g" horiz-adv-x="1218" d="M68 549q0 246 127 391q124 143 325 143q204 0 309 -157l11 131h256v-1069q0 -208 -132 -319t-372 -111q-220 0 -345 92t-141 264h267q24 -141 213 -141q119 0 170 52q51 53 51 159v145q-107 -129 -287 -129q-200 0 -325 154q-127 151 -127 395zM346 549q0 -139 66 -221 t172 -82q105 0 171 84t66 219t-66 219t-171 84q-106 0 -172 -82t-66 -221z" />
<glyph unicode="h" horiz-adv-x="1183" d="M123 0v1458h289v-543q105 168 303 168q164 0 255 -100t91 -274v-709h-289v643q0 87 -40 133q-41 47 -114 47q-92 0 -149 -70q-57 -71 -57 -188v-565h-289z" />
<glyph unicode="i" horiz-adv-x="534" d="M123 0v1057h289v-1057h-289zM123 1196v262h289v-262h-289z" />
<glyph unicode="j" horiz-adv-x="534" d="M-55 -164h73q58 0 82 19q23 18 23 65v1137h289v-1176q0 -159 -65 -229t-214 -70h-188v254zM123 1196v262h289v-262h-289z" />
<glyph unicode="k" horiz-adv-x="1171" d="M123 0v1458h289v-801l358 400h363l-412 -416l420 -641h-342l-281 459l-106 -109v-350h-289z" />
<glyph unicode="l" horiz-adv-x="534" d="M123 0v1458h289v-1458h-289z" />
<glyph unicode="m" horiz-adv-x="1771" d="M123 0v1057h283l4 -135q98 161 286 161q225 0 303 -190q102 190 312 190q158 0 248 -102t90 -274v-707h-289v649q0 78 -36 126t-105 48q-85 0 -137 -70t-52 -188v-565h-289v649q0 79 -35 126q-36 48 -106 48q-84 0 -136 -70t-52 -188v-565h-289z" />
<glyph unicode="n" horiz-adv-x="1183" d="M123 0v1057h283l4 -144q102 170 305 170q164 0 255 -100t91 -274v-709h-289v643q0 87 -40 133q-41 47 -114 47q-92 0 -149 -70q-57 -71 -57 -188v-565h-289z" />
<glyph unicode="o" horiz-adv-x="1212" d="M68 524q0 241 151 402q151 157 389 157t389 -157q152 -163 152 -402q0 -241 -152 -399q-151 -160 -389 -160t-389 160q-151 157 -151 399zM346 524q0 -153 72 -243q73 -91 190 -91q120 0 193 91q69 89 69 243q0 156 -69 244q-72 90 -193 90q-118 0 -190 -90t-72 -244z " />
<glyph unicode="p" horiz-adv-x="1214" d="M123 -418v1475h256l10 -137q108 163 330 163q187 0 309 -149q123 -152 123 -402q0 -252 -127 -409q-128 -158 -328 -158q-179 0 -284 133v-516h-289zM397 532q0 -140 67 -227q66 -86 171 -86q106 0 172 86q65 84 65 227t-65 227q-66 85 -172 85t-172 -85t-66 -227z" />
<glyph unicode="q" horiz-adv-x="1218" d="M68 532q0 252 122 402q122 149 310 149q221 0 329 -163l11 137h256v-1458h-289v499q-105 -133 -285 -133q-199 0 -327 158q-127 157 -127 409zM346 532q0 -142 66 -227q66 -86 172 -86q105 0 171 86q66 85 66 227q0 143 -65 227q-66 85 -172 85t-172 -85t-66 -227z" />
<glyph unicode="r" horiz-adv-x="774" d="M123 0v1057h283l-5 -142q69 179 240 179q51 0 92 -15v-264q-47 4 -59 4q-262 0 -262 -305v-514h-289z" />
<glyph unicode="s" horiz-adv-x="1105" d="M86 315l264 11q29 -164 225 -164q87 0 140 31q51 30 51 86q0 78 -139 106l-209 41q-307 61 -307 309q0 160 116 254t314 94q191 0 313 -91t143 -247l-260 -10q-11 71 -64 109q-54 39 -136 39q-70 0 -115 -31q-43 -30 -43 -82q0 -79 119 -106l227 -48q157 -33 233 -106 t76 -197q0 -167 -127 -258q-124 -94 -342 -94q-217 0 -336 92q-120 91 -143 262z" />
<glyph unicode="t" horiz-adv-x="700" d="M31 844v213l143 -4v329h289v-331l196 6v-213l-196 6v-518q0 -54 23 -77q24 -24 77 -24h96v-231h-188q-159 0 -228 69t-69 228v553z" />
<glyph unicode="u" horiz-adv-x="1183" d="M123 348v709h289v-643q0 -87 40 -133q42 -48 113 -48q93 0 150 71q57 70 57 188v565h289v-1057h-283l-4 143q-102 -170 -305 -170q-163 0 -255 101q-91 100 -91 274z" />
<glyph unicode="v" horiz-adv-x="1052" d="M31 1057h305l88 -318l108 -460l103 460l96 318h291l-348 -1057h-295z" />
<glyph unicode="w" horiz-adv-x="1591" d="M31 1057h303l117 -469l49 -266l49 266l119 469h256l118 -465l50 -270l49 266l116 469h304l-314 -1057h-274l-152 588l-24 139l-27 -139l-152 -588h-274z" />
<glyph unicode="x" horiz-adv-x="1122" d="M31 0l391 555l-340 502h330l163 -297l179 297h305l-340 -500l373 -557h-336l-191 346l-211 -346h-323z" />
<glyph unicode="y" horiz-adv-x="1138" d="M31 1057h317l195 -594l32 -154l226 748h307l-422 -1245q-44 -132 -112 -181t-189 -49h-242v246h140q116 0 149 90l10 29z" />
<glyph unicode="z" horiz-adv-x="993" d="M41 0v231l543 588h-478v238h826v-236l-526 -583h546v-238h-911z" />
<glyph unicode="{" horiz-adv-x="835" d="M68 459v205q188 6 188 180v411q0 121 74 198t186 77h252v-225h-123q-110 0 -110 -125v-371q0 -223 -211 -244v-6q211 -27 211 -244v-383q0 -125 112 -125h121v-225h-252q-120 0 -190 73t-70 202v432q0 164 -188 170z" />
<glyph unicode="|" horiz-adv-x="555" d="M133 -418v1948h289v-1948h-289z" />
<glyph unicode="}" horiz-adv-x="835" d="M68 -193h120q113 0 113 125v383q0 217 211 244v6q-211 21 -211 244v371q0 125 -111 125h-122v225h251q113 0 187 -77t74 -198v-411q0 -174 188 -180v-205q-188 -6 -188 -170v-432q0 -129 -70 -202t-191 -73h-251v225z" />
<glyph unicode="~" d="M178 483q0 402 307 402q112 0 244 -62q129 -63 186 -63q52 0 73 30q22 31 22 95h245q0 -402 -307 -402q-109 0 -239 64q-129 61 -191 61q-52 0 -73 -27t-21 -98h-246z" />
<glyph unicode="&#xa1;" horiz-adv-x="577" d="M133 750v307h311v-307h-311zM137 -41l80 619h145l78 -619v-377h-303v377z" />
<glyph unicode="&#xa2;" d="M219 524q0 222 106 370q104 146 291 179v291h226v-291q154 -27 250 -126t125 -259h-283q-47 170 -203 170q-111 0 -172 -87q-61 -86 -61 -247q0 -160 61 -246q62 -88 172 -88q153 0 203 175h283q-27 -159 -124 -260t-251 -130v-270h-226v270q-186 33 -291 180 q-106 148 -106 369z" />
<glyph unicode="&#xa3;" d="M123 0v256h121q199 0 305 61t106 154q0 46 -28 86l-504 -14v256l289 -13q-203 131 -203 320q0 160 129 274q124 111 375 111q257 0 407 -129q146 -129 156 -330h-295q-6 98 -72 155q-65 56 -174 56q-98 0 -160 -44q-61 -43 -61 -122q0 -150 270 -291l422 13v-256l-254 12 q17 -46 17 -82q0 -133 -135 -217h477v-256h-1188z" />
<glyph unicode="&#xa4;" d="M55 264l203 195q-72 128 -72 276q0 149 72 277l-203 194l191 191l196 -205q122 68 275 68q152 0 274 -68l197 205l190 -191l-202 -194q71 -126 71 -277q0 -150 -71 -276l202 -195l-190 -190l-197 205q-122 -68 -274 -68q-153 0 -275 68l-196 -205zM434 735 q0 -131 78 -213q78 -80 205 -80q130 0 207 80q75 76 75 213t-75 213q-78 80 -207 80q-127 0 -205 -80q-78 -82 -78 -213z" />
<glyph unicode="&#xa5;" d="M82 1458h334l221 -452l80 -203l84 203l225 452h326l-369 -680h274v-225h-389v-158h389v-225h-389v-170h-303v170h-387v225h387v158h-387v225h273z" />
<glyph unicode="&#xa6;" horiz-adv-x="555" d="M133 270h289v-688h-289v688zM133 842v688h289v-688h-289z" />
<glyph unicode="&#xa7;" horiz-adv-x="1243" d="M72 625q0 204 192 309q-98 89 -98 233q0 161 120 255q122 96 326 96q200 0 321 -92q120 -91 142 -257l-266 -14q-24 162 -207 162q-78 0 -125 -33t-47 -94q0 -96 141 -131l260 -60q340 -76 340 -376q0 -205 -192 -310q98 -88 98 -233q0 -160 -120 -255q-121 -95 -326 -95 q-202 0 -320 91q-119 92 -141 257l266 14q12 -77 66 -120q52 -42 139 -42q79 0 125 33q47 33 47 94q0 98 -141 131l-260 60q-340 76 -340 377zM330 649q0 -133 174 -172l252 -57q157 52 157 178q0 133 -174 172l-252 57q-157 -52 -157 -178z" />
<glyph unicode="&#xa8;" horiz-adv-x="1024" d="M152 1196v262h288v-262h-288zM584 1196v262h288v-262h-288z" />
<glyph unicode="&#xa9;" horiz-adv-x="1683" d="M72 729q0 335 217 549q220 215 553 215t553 -215q217 -214 217 -549q0 -331 -217 -545q-217 -217 -553 -217q-334 0 -551 217q-219 214 -219 545zM270 731q0 -252 162 -414q159 -163 410 -163q252 0 411 163q160 165 160 414q0 253 -160 416q-162 162 -411 162 q-251 0 -410 -162q-162 -162 -162 -416zM494 731q0 188 93 290q92 101 261 101q123 0 208 -58t118 -169l-187 -41q-33 92 -135 92q-154 0 -154 -215q0 -213 154 -213q104 0 137 94l185 -41q-72 -231 -326 -231q-166 0 -260 103t-94 288z" />
<glyph unicode="&#xaa;" horiz-adv-x="1026" d="M123 971q0 187 252 205l289 22v29q0 106 -140 106q-118 0 -145 -73l-238 34q51 191 385 191q194 0 286 -71q91 -70 91 -218v-434h-221l-16 72q-91 -89 -256 -89q-132 0 -210 61q-77 60 -77 165zM365 981q0 -82 114 -82q82 0 133 42q52 43 52 116v22l-203 -16 q-96 -11 -96 -82z" />
<glyph unicode="&#xab;" horiz-adv-x="1447" d="M123 406v241l555 426v-338l-289 -209l289 -209v-337zM770 406v241l555 426v-338l-289 -209l289 -209v-337z" />
<glyph unicode="&#xac;" d="M164 623v245h1106v-628h-266v383h-840z" />
<glyph unicode="&#xad;" horiz-adv-x="778" d="M102 455v250h574v-250h-574z" />
<glyph unicode="&#xae;" horiz-adv-x="1245" d="M72 954q0 225 159 381q160 154 392 154q231 0 391 -154q160 -157 160 -381q0 -222 -160 -376q-158 -156 -391 -156q-235 0 -392 156q-159 153 -159 376zM207 954q0 -173 121 -290q119 -117 295 -117q175 0 297 117q118 117 118 290q0 176 -118 293q-122 117 -297 117 t-297 -117q-119 -117 -119 -293zM406 694v529h260q94 0 146 -42t52 -118q0 -79 -71 -119q56 -30 61 -121l4 -69q1 -44 21 -60h-166q-14 26 -15 60l-4 57q-2 35 -15 47t-46 12h-68v-176h-159zM565 991h78q55 0 55 51q0 52 -55 52h-78v-103z" />
<glyph unicode="&#xaf;" horiz-adv-x="1024" d="M141 1241v215h744v-215h-744z" />
<glyph unicode="&#xb0;" horiz-adv-x="890" d="M68 1157q0 165 108 273q106 106 270 106q169 0 275 -106t106 -273q0 -166 -106 -272q-109 -109 -275 -109q-161 0 -270 109q-108 108 -108 272zM264 1157q0 -83 51 -135q51 -53 131 -53q83 0 134 53q51 52 51 135q0 81 -51 134q-51 52 -134 52q-80 0 -131 -52 q-51 -53 -51 -134z" />
<glyph unicode="&#xb1;" d="M164 -47v246h1106v-246h-1106zM164 698v246h420v336h266v-336h420v-246h-420v-338h-266v338h-420z" />
<glyph unicode="&#xb2;" horiz-adv-x="886" d="M102 1360q1 144 91 220q89 75 249 75q158 0 250 -75t92 -200q0 -155 -170 -247l-204 -111q-60 -34 -66 -80h438v-180h-676q0 149 41 239q40 88 140 144l198 110q95 51 95 121q0 50 -37 78q-38 29 -103 29q-134 0 -141 -123h-197z" />
<glyph unicode="&#xb3;" horiz-adv-x="913" d="M100 1030h197q11 -129 162 -129t151 111q0 106 -159 106h-72v170h78q133 0 133 94q0 47 -38 74q-37 27 -103 27q-134 0 -146 -107h-197q7 133 98 207q89 72 247 72q156 0 247 -68q90 -67 90 -180q0 -148 -145 -188v-2q77 -18 126 -77q48 -59 48 -139q0 -118 -96 -196 q-94 -76 -262 -76q-166 0 -258 80q-95 77 -101 221z" />
<glyph unicode="&#xb4;" horiz-adv-x="1024" d="M289 1169l96 289h352l-256 -289h-192z" />
<glyph unicode="&#xb5;" horiz-adv-x="1183" d="M123 -418v1475h289v-629q0 -195 153 -195q93 0 150 71q57 70 57 188v565h289v-1057h-283l-4 143q-35 -80 -104 -124q-70 -44 -156 -44q-77 0 -149 39l-5 -4l52 -235v-193h-289z" />
<glyph unicode="&#xb6;" horiz-adv-x="1370" d="M31 1057q0 401 524 401h682v-1669h-246v1423h-225v-1423h-246v881q-234 0 -361 103q-128 104 -128 284z" />
<glyph unicode="&#xb7;" horiz-adv-x="679" d="M184 582v307h312v-307h-312z" />
<glyph unicode="&#xb8;" horiz-adv-x="1024" d="M299 -162l102 162h154l-78 -117h23q94 0 149 -48q56 -48 56 -132q0 -103 -78 -160t-213 -57h-101v131h72q92 0 92 61q0 54 -57 54h-45z" />
<glyph unicode="&#xb9;" horiz-adv-x="606" d="M61 1325v154h62q77 0 123 37q47 38 47 102v18h190v-874h-204v563h-218z" />
<glyph unicode="&#xba;" horiz-adv-x="952" d="M68 1116q0 174 108 272q107 97 303 97q194 0 301 -97q109 -98 109 -272q0 -175 -109 -273t-301 -98q-195 0 -303 99t-108 272zM309 1116q0 -92 45 -143t125 -51t125 51q43 50 43 143q0 89 -44 141t-124 52q-79 0 -125 -52q-45 -51 -45 -141z" />
<glyph unicode="&#xbb;" horiz-adv-x="1443" d="M123 -20v337l287 209l-287 209v338l553 -426v-241zM768 -20v337l287 209l-287 209v338l553 -426v-241z" />
<glyph unicode="&#xbc;" horiz-adv-x="2162" d="M133 1161v154h62q76 0 122 37q48 39 48 102v19h190v-875h-205v563h-217zM434 -31l918 1520h217l-914 -1520h-221zM1253 154v165l404 555h231v-542l142 6v-184l-142 6v-160h-194v160zM1479 336l215 -4v299h-4z" />
<glyph unicode="&#xbd;" horiz-adv-x="2162" d="M133 1161v154h62q76 0 122 37q48 39 48 102v19h190v-875h-205v563h-217zM434 -31l918 1520h217l-914 -1520h-221zM1348 598q1 145 90 220t250 75q158 0 249 -75q93 -76 93 -200q0 -155 -170 -247l-205 -111q-60 -34 -66 -80h439v-180h-676q0 150 41 240q40 88 139 143 l199 111q94 51 94 120q0 50 -37 78q-38 29 -102 29q-134 0 -142 -123h-196z" />
<glyph unicode="&#xbe;" horiz-adv-x="2353" d="M123 866h196q7 -129 162 -129q152 0 152 111q0 106 -160 106h-72v170h78q133 0 133 95q0 46 -38 73t-103 27q-133 0 -145 -107h-197q7 134 97 207q89 72 247 72q157 0 248 -68q90 -67 90 -180q0 -148 -145 -188v-2q77 -18 126 -77q48 -58 48 -138q0 -118 -97 -197 q-94 -76 -262 -76q-166 0 -258 80q-94 76 -100 221zM635 -31l917 1520h217l-913 -1520h-221zM1454 154v165l404 555h231v-542l141 6v-184l-141 6v-160h-195v160zM1679 336l215 -4v299h-4z" />
<glyph unicode="&#xbf;" horiz-adv-x="1206" d="M72 -8q0 200 182 321l96 64q66 44 87 79q22 38 22 93v29h274v-56q0 -102 -42 -171q-41 -67 -154 -144q-80 -53 -113 -99q-33 -47 -33 -106q0 -87 65 -134q64 -46 167 -46q223 0 233 231h293q-6 -235 -144 -361t-389 -126t-397 117q-147 117 -147 309zM440 750v307h312 v-307h-312z" />
<glyph unicode="&#xc0;" horiz-adv-x="1472" d="M51 0l516 1458h351l503 -1458h-323l-99 303h-528l-98 -303h-322zM461 1860h352l96 -289h-192zM553 553h367l-60 180l-123 420l-125 -420z" />
<glyph unicode="&#xc1;" horiz-adv-x="1472" d="M51 0l516 1458h351l503 -1458h-323l-99 303h-528l-98 -303h-322zM553 553h367l-60 180l-123 420l-125 -420zM602 1571l96 289h353l-256 -289h-193z" />
<glyph unicode="&#xc2;" horiz-adv-x="1472" d="M51 0l516 1458h351l503 -1458h-323l-99 303h-528l-98 -303h-322zM377 1591l246 301h266l246 -301h-256l-123 168l-123 -168h-256zM553 553h367l-60 180l-123 420l-125 -420z" />
<glyph unicode="&#xc3;" horiz-adv-x="1472" d="M51 0l516 1458h351l503 -1458h-323l-99 303h-528l-98 -303h-322zM322 1602q0 364 262 364q79 0 170 -53q89 -55 129 -55q86 0 86 108h221q0 -364 -262 -364q-81 0 -170 55q-91 53 -129 53q-86 0 -86 -108h-221zM553 553h367l-60 180l-123 420l-125 -420z" />
<glyph unicode="&#xc4;" horiz-adv-x="1472" d="M51 0l516 1458h351l503 -1458h-323l-99 303h-528l-98 -303h-322zM395 1597v263h289v-263h-289zM553 553h367l-60 180l-123 420l-125 -420zM827 1597v263h289v-263h-289z" />
<glyph unicode="&#xc5;" horiz-adv-x="1472" d="M51 0l490 1382q-88 88 -88 220q0 131 86 217t217 86t217 -86t86 -217q0 -147 -109 -238l471 -1364h-323l-99 303h-528l-98 -303h-322zM553 553h367l-60 180l-123 420l-125 -420zM614 1602q0 -66 39 -105q41 -39 104 -39t103 39q41 39 41 105q0 65 -41 106t-104 41 q-64 0 -103 -41q-39 -40 -39 -106z" />
<glyph unicode="&#xc6;" horiz-adv-x="2332" d="M51 0l879 1458h1300v-256h-757v-315h681v-260h-681v-371h778v-256h-1082v367h-561l-221 -367h-336zM762 623h407v573h-63z" />
<glyph unicode="&#xc7;" horiz-adv-x="1419" d="M72 729q0 348 192 555q195 207 490 207q266 0 430 -138q163 -138 184 -378h-289q-18 121 -99 187q-82 67 -212 67q-184 0 -289 -135q-104 -134 -104 -365q0 -239 104 -376q105 -138 289 -138q134 0 213 72q80 73 98 190h287q-17 -232 -163 -368q-148 -138 -390 -154 l-61 -92h22q94 0 150 -48q55 -48 55 -132q0 -103 -78 -160q-79 -58 -213 -58h-100v132h71q93 0 93 61q0 53 -58 53h-45l-76 107l89 141q-263 30 -426 240q-164 212 -164 530z" />
<glyph unicode="&#xc8;" horiz-adv-x="1296" d="M133 0v1458h1061v-256h-758v-315h682v-260h-682v-371h778v-256h-1081zM362 1860h353l96 -289h-193z" />
<glyph unicode="&#xc9;" horiz-adv-x="1296" d="M133 0v1458h1061v-256h-758v-315h682v-260h-682v-371h778v-256h-1081zM504 1571l96 289h352l-256 -289h-192z" />
<glyph unicode="&#xca;" horiz-adv-x="1296" d="M133 0v1458h1061v-256h-758v-315h682v-260h-682v-371h778v-256h-1081zM279 1591l245 301h267l245 -301h-256l-123 168l-122 -168h-256z" />
<glyph unicode="&#xcb;" horiz-adv-x="1296" d="M133 0v1458h1061v-256h-758v-315h682v-260h-682v-371h778v-256h-1081zM297 1597v263h289v-263h-289zM729 1597v263h289v-263h-289z" />
<glyph unicode="&#xcc;" horiz-adv-x="569" d="M-10 1860h352l96 -289h-192zM133 0v1458h303v-1458h-303z" />
<glyph unicode="&#xcd;" horiz-adv-x="569" d="M131 1571l96 289h353l-256 -289h-193zM133 0v1458h303v-1458h-303z" />
<glyph unicode="&#xce;" horiz-adv-x="569" d="M-94 1591l246 301h266l246 -301h-256l-123 168l-123 -168h-256zM133 0v1458h303v-1458h-303z" />
<glyph unicode="&#xcf;" horiz-adv-x="569" d="M-76 1597v263h289v-263h-289zM133 0v1458h303v-1458h-303zM356 1597v263h289v-263h-289z" />
<glyph unicode="&#xd0;" horiz-adv-x="1542" d="M31 614v248l217 -8v604h536q693 0 693 -729q0 -349 -165 -539t-487 -190h-577v623zM551 256h235q210 0 299 110t89 363q0 257 -93 373q-94 110 -336 110h-194v-360l340 10v-248l-340 11v-369z" />
<glyph unicode="&#xd1;" horiz-adv-x="1443" d="M133 0v1458h297l578 -936v936h303v-1458h-297l-578 936v-936h-303zM289 1602q0 364 262 364q79 0 170 -53q89 -55 129 -55q86 0 86 108h221q0 -364 -262 -364q-81 0 -170 55q-91 53 -129 53q-86 0 -86 -108h-221z" />
<glyph unicode="&#xd2;" horiz-adv-x="1527" d="M72 731q0 345 194 555q195 207 494 207q296 0 497 -207q199 -208 199 -555q0 -349 -199 -563q-201 -215 -497 -215q-297 0 -492 215q-196 212 -196 563zM375 731q0 -235 104 -375q102 -141 281 -141t287 141q106 139 106 375q0 227 -106 363q-107 137 -287 137t-281 -137 q-104 -138 -104 -363zM469 1860h352l97 -289h-193z" />
<glyph unicode="&#xd3;" horiz-adv-x="1527" d="M72 731q0 345 194 555q195 207 494 207q296 0 497 -207q199 -208 199 -555q0 -349 -199 -563q-201 -215 -497 -215q-297 0 -492 215q-196 212 -196 563zM375 731q0 -235 104 -375q102 -141 281 -141t287 141q106 139 106 375q0 227 -106 363q-107 137 -287 137t-281 -137 q-104 -138 -104 -363zM610 1571l97 289h352l-256 -289h-193z" />
<glyph unicode="&#xd4;" horiz-adv-x="1527" d="M72 731q0 345 194 555q195 207 494 207q296 0 497 -207q199 -208 199 -555q0 -349 -199 -563q-201 -215 -497 -215q-297 0 -492 215q-196 212 -196 563zM375 731q0 -235 104 -375q102 -141 281 -141t287 141q106 139 106 375q0 227 -106 363q-107 137 -287 137t-281 -137 q-104 -138 -104 -363zM385 1591l246 301h266l246 -301h-256l-123 168l-123 -168h-256z" />
<glyph unicode="&#xd5;" horiz-adv-x="1527" d="M72 731q0 345 194 555q195 207 494 207q296 0 497 -207q199 -208 199 -555q0 -349 -199 -563q-201 -215 -497 -215q-297 0 -492 215q-196 212 -196 563zM330 1602q0 364 262 364q79 0 170 -53q89 -55 129 -55q86 0 86 108h221q0 -364 -262 -364q-81 0 -170 55 q-91 53 -129 53q-86 0 -86 -108h-221zM375 731q0 -235 104 -375q102 -141 281 -141t287 141q106 139 106 375q0 227 -106 363q-107 137 -287 137t-281 -137q-104 -138 -104 -363z" />
<glyph unicode="&#xd6;" horiz-adv-x="1527" d="M72 731q0 345 194 555q195 207 494 207q296 0 497 -207q199 -208 199 -555q0 -349 -199 -563q-201 -215 -497 -215q-297 0 -492 215q-196 212 -196 563zM375 731q0 -235 104 -375q102 -141 281 -141t287 141q106 139 106 375q0 227 -106 363q-107 137 -287 137t-281 -137 q-104 -138 -104 -363zM403 1597v263h289v-263h-289zM836 1597v263h288v-263h-288z" />
<glyph unicode="&#xd7;" d="M150 244l393 393l-393 393l174 174l393 -393l395 393l172 -174l-393 -393l393 -393l-174 -174l-393 393l-391 -393z" />
<glyph unicode="&#xd8;" horiz-adv-x="1527" d="M72 731q0 345 194 555q195 207 494 207q216 0 387 -115l106 144l152 -109l-119 -160q170 -208 170 -522q0 -349 -199 -563q-201 -215 -497 -215q-210 0 -367 106l-119 -157l-151 108l129 174q-180 212 -180 547zM375 731q0 -181 61 -303l545 729q-92 74 -221 74 q-180 0 -281 -137q-104 -138 -104 -363zM557 279q85 -64 203 -64q179 0 287 141q106 139 106 375q0 151 -53 275z" />
<glyph unicode="&#xd9;" horiz-adv-x="1398" d="M133 449v1009h303v-1014q0 -229 264 -229q263 0 263 229v1014h303v-1009q0 -238 -150 -367t-418 -129t-415 129q-150 129 -150 367zM406 1860h352l96 -289h-192z" />
<glyph unicode="&#xda;" horiz-adv-x="1398" d="M133 449v1009h303v-1014q0 -229 264 -229q263 0 263 229v1014h303v-1009q0 -238 -150 -367t-418 -129t-415 129q-150 129 -150 367zM547 1571l96 289h352l-256 -289h-192z" />
<glyph unicode="&#xdb;" horiz-adv-x="1398" d="M133 449v1009h303v-1014q0 -229 264 -229q263 0 263 229v1014h303v-1009q0 -238 -150 -367t-418 -129t-415 129q-150 129 -150 367zM322 1591l245 301h267l245 -301h-256l-123 168l-122 -168h-256z" />
<glyph unicode="&#xdc;" horiz-adv-x="1398" d="M133 449v1009h303v-1014q0 -229 264 -229q263 0 263 229v1014h303v-1009q0 -238 -150 -367t-418 -129t-415 129q-150 129 -150 367zM340 1597v263h289v-263h-289zM772 1597v263h289v-263h-289z" />
<glyph unicode="&#xdd;" horiz-adv-x="1343" d="M37 1458h334l221 -452l80 -203l84 203l225 452h326l-484 -893v-565h-303v565zM518 1571l96 289h353l-256 -289h-193z" />
<glyph unicode="&#xde;" horiz-adv-x="1251" d="M133 0v1458h303v-227h277q236 0 372 -125t136 -344q0 -226 -140 -354q-139 -127 -395 -127h-250v-281h-303zM436 537h223q131 0 200 57t69 164q0 102 -64 160q-63 57 -174 57h-254v-438z" />
<glyph unicode="&#xdf;" horiz-adv-x="1206" d="M123 0v1047q0 225 115 331q114 105 352 105q239 0 368 -100q127 -99 127 -273q0 -234 -211 -295v-4q269 -72 269 -373q0 -206 -126 -322q-127 -116 -349 -116h-88v225h55q213 0 213 219q0 220 -213 220h-55v225h26q195 0 195 180q0 188 -197 188q-93 0 -142 -49 q-50 -50 -50 -137v-1071h-289z" />
<glyph unicode="&#xe0;" horiz-adv-x="1140" d="M51 291q0 256 322 319l368 74v78q0 115 -178 115q-88 0 -133 -33q-44 -33 -55 -107l-264 4q27 340 450 340q457 0 457 -393v-467q0 -148 41 -221h-293q-23 104 -23 106q-113 -137 -325 -137q-166 0 -266 88q-101 89 -101 234zM268 1458h353l96 -289h-193zM334 309 q0 -57 44 -92t122 -35q108 0 175 65q66 65 66 175v78l-270 -58q-137 -27 -137 -133z" />
<glyph unicode="&#xe1;" horiz-adv-x="1140" d="M51 291q0 256 322 319l368 74v78q0 115 -178 115q-88 0 -133 -33q-44 -33 -55 -107l-264 4q27 340 450 340q457 0 457 -393v-467q0 -148 41 -221h-293q-23 104 -23 106q-113 -137 -325 -137q-166 0 -266 88q-101 89 -101 234zM334 309q0 -57 44 -92t122 -35q108 0 175 65 q66 65 66 175v78l-270 -58q-137 -27 -137 -133zM410 1169l96 289h352l-256 -289h-192z" />
<glyph unicode="&#xe2;" horiz-adv-x="1140" d="M51 291q0 256 322 319l368 74v78q0 115 -178 115q-88 0 -133 -33q-44 -33 -55 -107l-264 4q27 340 450 340q457 0 457 -393v-467q0 -148 41 -221h-293q-23 104 -23 106q-113 -137 -325 -137q-166 0 -266 88q-101 89 -101 234zM184 1190l246 301h266l246 -301h-256 l-123 168l-123 -168h-256zM334 309q0 -57 44 -92t122 -35q108 0 175 65q66 65 66 175v78l-270 -58q-137 -27 -137 -133z" />
<glyph unicode="&#xe3;" horiz-adv-x="1140" d="M51 291q0 256 322 319l368 74v78q0 115 -178 115q-88 0 -133 -33q-44 -33 -55 -107l-264 4q27 340 450 340q457 0 457 -393v-467q0 -148 41 -221h-293q-23 104 -23 106q-113 -137 -325 -137q-166 0 -266 88q-101 89 -101 234zM129 1200q0 365 262 365q79 0 172 -54 q89 -55 127 -55q86 0 86 109h221q0 -365 -262 -365q-81 0 -170 55q-93 54 -129 54q-86 0 -86 -109h-221zM334 309q0 -57 44 -92t122 -35q108 0 175 65q66 65 66 175v78l-270 -58q-137 -27 -137 -133z" />
<glyph unicode="&#xe4;" horiz-adv-x="1140" d="M51 291q0 256 322 319l368 74v78q0 115 -178 115q-88 0 -133 -33q-44 -33 -55 -107l-264 4q27 340 450 340q457 0 457 -393v-467q0 -148 41 -221h-293q-23 104 -23 106q-113 -137 -325 -137q-166 0 -266 88q-101 89 -101 234zM203 1196v262h289v-262h-289zM334 309 q0 -57 44 -92t122 -35q108 0 175 65q66 65 66 175v78l-270 -58q-137 -27 -137 -133zM635 1196v262h289v-262h-289z" />
<glyph unicode="&#xe5;" horiz-adv-x="1140" d="M51 291q0 256 322 319l368 74v78q0 115 -178 115q-88 0 -133 -33q-44 -33 -55 -107l-264 4q27 340 450 340q457 0 457 -393v-467q0 -148 41 -221h-293q-23 104 -23 106q-113 -137 -325 -137q-166 0 -266 88q-101 89 -101 234zM260 1470q0 132 86 218t217 86t217 -86 t86 -218q0 -131 -86 -215q-86 -86 -217 -86t-217 86q-86 84 -86 215zM334 309q0 -57 44 -92t122 -35q108 0 175 65q66 65 66 175v78l-270 -58q-137 -27 -137 -133zM422 1470q0 -65 39 -104t102 -39q65 0 105 39q41 39 41 104q0 66 -41 107t-105 41q-63 0 -102 -41t-39 -107z " />
<glyph unicode="&#xe6;" horiz-adv-x="1867" d="M51 299q0 143 97 230q98 87 286 87h307v105q0 156 -186 156q-83 0 -127 -33q-42 -32 -53 -107l-264 4q30 340 434 340q276 0 375 -153q136 155 380 155q240 0 372 -156t132 -435v-52h-766q11 -120 76 -185q67 -67 172 -67q147 0 203 131l283 -32q-114 -324 -480 -324 q-300 0 -428 221q-128 -215 -413 -215q-188 0 -294 89t-106 241zM334 311q0 -59 44 -94t122 -35q108 0 175 65q66 65 66 175v20h-235q-87 0 -129 -35q-43 -36 -43 -96zM1036 616h469q-7 124 -71 191q-61 65 -162 65q-99 0 -164 -65q-61 -66 -72 -191z" />
<glyph unicode="&#xe7;" horiz-adv-x="1122" d="M68 524q0 257 137 408q139 151 370 151q203 0 330 -103t160 -292h-283q-47 170 -202 170q-110 0 -172 -87q-62 -88 -62 -247q0 -158 62 -246t172 -88q152 0 202 175h283q-29 -175 -142 -278q-114 -103 -290 -120l-68 -100h23q94 0 149 -48q56 -48 56 -132 q0 -103 -78 -160t-213 -57h-101v131h72q92 0 92 61q0 53 -57 53h-45l-76 107l94 149q-194 30 -304 177q-109 146 -109 376z" />
<glyph unicode="&#xe8;" horiz-adv-x="1193" d="M68 532q0 240 141 396q140 155 379 155q240 0 391 -159q151 -161 151 -432v-50h-765q8 -119 73 -186q66 -68 174 -68q153 0 205 138l287 -21q-52 -167 -178 -255q-124 -87 -308 -87q-255 0 -403 160q-147 159 -147 409zM303 1458h352l97 -289h-193zM362 639h469 q-12 111 -73 172t-160 61q-100 0 -162 -61q-64 -67 -74 -172z" />
<glyph unicode="&#xe9;" horiz-adv-x="1193" d="M68 532q0 240 141 396q140 155 379 155q240 0 391 -159q151 -161 151 -432v-50h-765q8 -119 73 -186q66 -68 174 -68q153 0 205 138l287 -21q-52 -167 -178 -255q-124 -87 -308 -87q-255 0 -403 160q-147 159 -147 409zM362 639h469q-12 111 -73 172t-160 61 q-100 0 -162 -61q-64 -67 -74 -172zM444 1169l97 289h352l-256 -289h-193z" />
<glyph unicode="&#xea;" horiz-adv-x="1193" d="M68 532q0 240 141 396q140 155 379 155q240 0 391 -159q151 -161 151 -432v-50h-765q8 -119 73 -186q66 -68 174 -68q153 0 205 138l287 -21q-52 -167 -178 -255q-124 -87 -308 -87q-255 0 -403 160q-147 159 -147 409zM219 1190l246 301h266l246 -301h-256l-123 168 l-123 -168h-256zM362 639h469q-12 111 -73 172t-160 61q-100 0 -162 -61q-64 -67 -74 -172z" />
<glyph unicode="&#xeb;" horiz-adv-x="1193" d="M68 532q0 240 141 396q140 155 379 155q240 0 391 -159q151 -161 151 -432v-50h-765q8 -119 73 -186q66 -68 174 -68q153 0 205 138l287 -21q-52 -167 -178 -255q-124 -87 -308 -87q-255 0 -403 160q-147 159 -147 409zM238 1196v262h288v-262h-288zM362 639h469 q-12 111 -73 172t-160 61q-100 0 -162 -61q-64 -67 -74 -172zM670 1196v262h288v-262h-288z" />
<glyph unicode="&#xec;" horiz-adv-x="534" d="M-27 1458h353l96 -289h-193zM123 0v1057h289v-1057h-289z" />
<glyph unicode="&#xed;" horiz-adv-x="534" d="M115 1169l96 289h352l-256 -289h-192zM123 0v1057h289v-1057h-289z" />
<glyph unicode="&#xee;" horiz-adv-x="534" d="M-111 1190l246 301h266l246 -301h-256l-123 168l-123 -168h-256zM123 0v1057h289v-1057h-289z" />
<glyph unicode="&#xef;" horiz-adv-x="534" d="M-55 1196v262h239v-262h-239zM123 0v1057h289v-1057h-289zM332 1196v262h260v-262h-260z" />
<glyph unicode="&#xf0;" horiz-adv-x="1163" d="M68 463q0 210 122 342q123 133 314 133q174 0 280 -96q-60 158 -219 293l-207 -134l-104 156l160 84q-87 48 -160 78l108 211q149 -67 275 -152l219 152l111 -172l-183 -98q316 -304 316 -721q0 -271 -143 -422q-143 -150 -388 -150q-235 0 -366 135q-135 135 -135 361z M346 457q0 -123 63 -194q63 -70 171 -70q115 0 178 79q63 80 63 232v22q-7 69 -84 129q-73 58 -168 58q-99 0 -161 -70t-62 -186z" />
<glyph unicode="&#xf1;" horiz-adv-x="1183" d="M123 0v1057h283l4 -144q102 170 305 170q164 0 255 -100t91 -274v-709h-289v643q0 87 -40 133q-41 47 -114 47q-92 0 -149 -70q-57 -71 -57 -188v-565h-289zM166 1200q0 365 262 365q77 0 170 -54q89 -55 129 -55q86 0 86 109h221q0 -365 -262 -365q-81 0 -170 55 q-93 54 -129 54q-86 0 -86 -109h-221z" />
<glyph unicode="&#xf2;" horiz-adv-x="1212" d="M68 524q0 241 151 402q151 157 389 157t389 -157q152 -163 152 -402q0 -241 -152 -399q-151 -160 -389 -160t-389 160q-151 157 -151 399zM313 1458h353l96 -289h-193zM346 524q0 -153 72 -243q73 -91 190 -91q120 0 193 91q69 89 69 243q0 156 -69 244q-72 90 -193 90 q-118 0 -190 -90t-72 -244z" />
<glyph unicode="&#xf3;" horiz-adv-x="1212" d="M68 524q0 241 151 402q151 157 389 157t389 -157q152 -163 152 -402q0 -241 -152 -399q-151 -160 -389 -160t-389 160q-151 157 -151 399zM346 524q0 -153 72 -243q73 -91 190 -91q120 0 193 91q69 89 69 243q0 156 -69 244q-72 90 -193 90q-118 0 -190 -90t-72 -244z M455 1169l96 289h352l-256 -289h-192z" />
<glyph unicode="&#xf4;" horiz-adv-x="1212" d="M68 524q0 241 151 402q151 157 389 157t389 -157q152 -163 152 -402q0 -241 -152 -399q-151 -160 -389 -160t-389 160q-151 157 -151 399zM229 1190l246 301h266l246 -301h-256l-123 168l-123 -168h-256zM346 524q0 -153 72 -243q73 -91 190 -91q120 0 193 91 q69 89 69 243q0 156 -69 244q-72 90 -193 90q-118 0 -190 -90t-72 -244z" />
<glyph unicode="&#xf5;" horiz-adv-x="1212" d="M68 524q0 241 151 402q151 157 389 157t389 -157q152 -163 152 -402q0 -241 -152 -399q-151 -160 -389 -160t-389 160q-151 157 -151 399zM174 1200q0 365 262 365q79 0 172 -54q88 -55 127 -55q86 0 86 109h221q0 -365 -262 -365q-81 0 -170 55q-93 54 -129 54 q-86 0 -86 -109h-221zM346 524q0 -153 72 -243q73 -91 190 -91q120 0 193 91q69 89 69 243q0 156 -69 244q-72 90 -193 90q-118 0 -190 -90t-72 -244z" />
<glyph unicode="&#xf6;" horiz-adv-x="1212" d="M68 524q0 241 151 402q151 157 389 157t389 -157q152 -163 152 -402q0 -241 -152 -399q-151 -160 -389 -160t-389 160q-151 157 -151 399zM248 1196v262h289v-262h-289zM346 524q0 -153 72 -243q73 -91 190 -91q120 0 193 91q69 89 69 243q0 156 -69 244q-72 90 -193 90 q-118 0 -190 -90t-72 -244zM680 1196v262h289v-262h-289z" />
<glyph unicode="&#xf7;" d="M123 506v246h1188v-246h-1188zM569 59v297h297v-297h-297zM569 901v297h297v-297h-297z" />
<glyph unicode="&#xf8;" horiz-adv-x="1212" d="M68 524q0 241 151 402q151 157 389 157q170 0 301 -86l84 97l127 -111l-88 -100q117 -152 117 -359q0 -241 -152 -399q-151 -160 -389 -160q-166 0 -299 84l-84 -96l-127 110l88 101q-118 149 -118 360zM346 524q0 -75 23 -149l383 440q-61 43 -144 43q-121 0 -191 -90 q-71 -91 -71 -244zM469 231q61 -41 139 -41q121 0 192 91q70 89 70 243q0 84 -20 148z" />
<glyph unicode="&#xf9;" horiz-adv-x="1183" d="M123 348v709h289v-643q0 -87 40 -133q42 -48 113 -48q93 0 150 71q57 70 57 188v565h289v-1057h-283l-4 143q-102 -170 -305 -170q-163 0 -255 101q-91 100 -91 274zM297 1458h352l96 -289h-192z" />
<glyph unicode="&#xfa;" horiz-adv-x="1183" d="M123 348v709h289v-643q0 -87 40 -133q42 -48 113 -48q93 0 150 71q57 70 57 188v565h289v-1057h-283l-4 143q-102 -170 -305 -170q-163 0 -255 101q-91 100 -91 274zM438 1169l97 289h352l-256 -289h-193z" />
<glyph unicode="&#xfb;" horiz-adv-x="1183" d="M123 348v709h289v-643q0 -87 40 -133q42 -48 113 -48q93 0 150 71q57 70 57 188v565h289v-1057h-283l-4 143q-102 -170 -305 -170q-163 0 -255 101q-91 100 -91 274zM213 1190l246 301h266l246 -301h-256l-123 168l-123 -168h-256z" />
<glyph unicode="&#xfc;" horiz-adv-x="1183" d="M123 348v709h289v-643q0 -87 40 -133q42 -48 113 -48q93 0 150 71q57 70 57 188v565h289v-1057h-283l-4 143q-102 -170 -305 -170q-163 0 -255 101q-91 100 -91 274zM231 1196v262h289v-262h-289zM664 1196v262h288v-262h-288z" />
<glyph unicode="&#xfd;" horiz-adv-x="1138" d="M31 1057h317l195 -594l32 -154l226 748h307l-422 -1245q-44 -132 -112 -181t-189 -49h-242v246h140q116 0 149 90l10 29zM422 1169l96 289h352l-256 -289h-192z" />
<glyph unicode="&#xfe;" horiz-adv-x="1214" d="M123 -418v1876h289v-508q108 133 307 133q187 0 309 -149q123 -152 123 -402q0 -252 -127 -409q-128 -158 -328 -158q-179 0 -284 133v-516h-289zM397 532q0 -140 67 -227q66 -86 171 -86q106 0 172 86q65 84 65 227t-65 227q-66 85 -172 85t-172 -85t-66 -227z" />
<glyph unicode="&#xff;" horiz-adv-x="1138" d="M31 1057h317l195 -594l32 -154l226 748h307l-422 -1245q-44 -132 -112 -181t-189 -49h-242v246h140q116 0 149 90l10 29zM215 1196v262h289v-262h-289zM647 1196v262h289v-262h-289z" />
<glyph unicode="&#x152;" horiz-adv-x="2316" d="M72 729q0 343 192 549q191 203 479 203q257 0 410 -164v141h1061v-256h-758v-315h682v-260h-682v-371h778v-256h-1081v135q-153 -170 -410 -170q-284 0 -479 209q-192 207 -192 555zM375 729q0 -236 105 -374t288 -138q181 0 283 136q102 137 102 376q0 236 -102 368 t-283 132q-183 0 -288 -136q-105 -137 -105 -364z" />
<glyph unicode="&#x153;" horiz-adv-x="1996" d="M68 524q0 241 151 402q151 157 389 157q244 0 396 -165q143 165 387 165q239 0 391 -159q151 -161 151 -432v-50h-766q7 -118 74 -186q66 -68 174 -68q153 0 205 138l287 -21q-52 -167 -178 -255q-125 -87 -308 -87q-258 0 -411 174q-157 -172 -402 -172q-238 0 -389 160 q-151 157 -151 399zM346 524q0 -153 72 -243q73 -91 190 -91q120 0 193 91q69 89 69 243q0 156 -69 244q-72 90 -193 90q-118 0 -190 -90t-72 -244zM1165 639h469q-12 111 -73 172t-160 61q-101 0 -163 -62t-73 -171z" />
<glyph unicode="&#x178;" horiz-adv-x="1343" d="M37 1458h334l221 -452l80 -203l84 203l225 452h326l-484 -893v-565h-303v565zM311 1597v263h289v-263h-289zM743 1597v263h289v-263h-289z" />
<glyph unicode="&#x2c6;" horiz-adv-x="1024" d="M133 1190l246 301h266l246 -301h-256l-123 168l-123 -168h-256z" />
<glyph unicode="&#x2dc;" horiz-adv-x="1024" d="M76 1282q0 365 262 365q77 0 170 -54q89 -55 129 -55q86 0 86 109h221q0 -365 -262 -365q-81 0 -170 55q-93 54 -129 54q-86 0 -86 -109h-221z" />
<glyph unicode="&#x2000;" horiz-adv-x="983" />
<glyph unicode="&#x2001;" horiz-adv-x="1966" />
<glyph unicode="&#x2002;" horiz-adv-x="983" />
<glyph unicode="&#x2003;" horiz-adv-x="1966" />
<glyph unicode="&#x2004;" horiz-adv-x="655" />
<glyph unicode="&#x2005;" horiz-adv-x="491" />
<glyph unicode="&#x2006;" horiz-adv-x="327" />
<glyph unicode="&#x2007;" horiz-adv-x="327" />
<glyph unicode="&#x2008;" horiz-adv-x="245" />
<glyph unicode="&#x2009;" horiz-adv-x="393" />
<glyph unicode="&#x200a;" horiz-adv-x="109" />
<glyph unicode="&#x2010;" horiz-adv-x="778" d="M102 455v250h574v-250h-574z" />
<glyph unicode="&#x2011;" horiz-adv-x="778" d="M102 455v250h574v-250h-574z" />
<glyph unicode="&#x2012;" horiz-adv-x="778" d="M102 455v250h574v-250h-574z" />
<glyph unicode="&#x2013;" horiz-adv-x="1095" d="M102 455v229h891v-229h-891z" />
<glyph unicode="&#x2014;" horiz-adv-x="1697" d="M102 455v229h1493v-229h-1493z" />
<glyph unicode="&#x2018;" horiz-adv-x="456" d="M61 825v367q0 266 293 266h39v-131h-39q-135 0 -135 -135v-59h176v-308h-334z" />
<glyph unicode="&#x2019;" horiz-adv-x="456" d="M61 1151v307h334v-366q0 -267 -293 -267h-39v131h39q136 0 136 136v59h-177z" />
<glyph unicode="&#x201a;" horiz-adv-x="579" d="M123 0v307h334v-366q0 -267 -293 -267h-39v131h39q135 0 135 136v59h-176z" />
<glyph unicode="&#x201c;" horiz-adv-x="890" d="M61 825v367q0 266 293 266h39v-131h-39q-135 0 -135 -135v-59h176v-308h-334zM496 825v367q0 266 292 266h39v-131h-39q-135 0 -135 -135v-59h176v-308h-333z" />
<glyph unicode="&#x201d;" horiz-adv-x="890" d="M61 1151v307h334v-366q0 -267 -293 -267h-39v131h39q136 0 136 136v59h-177zM496 1151v307h333v-366q0 -267 -292 -267h-39v131h39q135 0 135 136v59h-176z" />
<glyph unicode="&#x201e;" horiz-adv-x="1013" d="M123 0v307h334v-366q0 -267 -293 -267h-39v131h39q135 0 135 136v59h-176zM557 0v307h334v-366q0 -267 -293 -267h-39v131h39q135 0 135 136v59h-176z" />
<glyph unicode="&#x2022;" horiz-adv-x="851" d="M133 322v532h586v-532h-586z" />
<glyph unicode="&#x2026;" horiz-adv-x="1751" d="M123 0v307h338v-307h-338zM707 0v307h337v-307h-337zM1290 0v307h338v-307h-338z" />
<glyph unicode="&#x202f;" horiz-adv-x="393" />
<glyph unicode="&#x2039;" horiz-adv-x="800" d="M123 406v241l555 426v-338l-289 -209l289 -209v-337z" />
<glyph unicode="&#x203a;" horiz-adv-x="798" d="M123 -20v337l287 209l-287 209v338l553 -426v-241z" />
<glyph unicode="&#x205f;" horiz-adv-x="491" />
<glyph unicode="&#x20ac;" d="M123 432v211h209q-2 24 -2 80q0 21 4 94h-211v211h252q72 222 243 342q172 121 416 121q136 0 277 -39v-260q-126 37 -250 37q-291 0 -377 -201h627v-211h-672q-4 -69 -4 -94q0 -58 2 -80h674v-211h-631q90 -203 381 -203q124 0 250 37v-260q-141 -39 -277 -39 q-246 0 -419 123t-242 342h-250z" />
<glyph unicode="&#x2122;" horiz-adv-x="2048" d="M68 1264v194h723v-194h-248v-588h-226v588h-249zM903 676v782h373l133 -606h16l125 606h375v-782h-205v606h-16l-125 -606h-324l-131 606h-16v-606h-205z" />
<glyph unicode="&#x25fc;" horiz-adv-x="1054" d="M0 0v1055h1055v-1055h-1055z" />
</font>
</defs>
</svg>
